<svg width="546" height="230" viewBox="0 0 546 230" fill="none" xmlns="http://www.w3.org/2000/svg">
<g clip-path="url(#clip0_497_252)">
<path d="M120.85 76.2702C115.6 76.2702 110.91 75.3002 106.78 73.3502C102.65 71.4102 99.2801 68.9202 96.6901 65.9002L102.34 61.1802C104.75 63.5902 107.52 65.4702 110.67 66.8302C113.82 68.1902 117.24 68.8702 120.94 68.8702C125.51 68.8702 129.04 67.9302 131.54 66.0502C134.04 64.1702 135.29 61.7502 135.29 58.7802C135.29 56.1902 134.46 53.9502 132.79 52.0702C131.12 50.1902 128.53 48.5402 125.02 47.1202L111.6 41.6602C106.23 39.4402 102.34 36.8002 99.9401 33.7502C97.5301 30.7002 96.3301 27.0702 96.3301 22.8702C96.3301 20.2802 96.8701 17.9002 97.9501 15.7402C99.0301 13.5802 100.56 11.7102 102.53 10.1402C104.5 8.57018 106.86 7.35018 109.61 6.48018C112.36 5.62018 115.43 5.18018 118.82 5.18018C122.52 5.18018 125.81 5.77018 128.68 6.94018C131.55 8.11018 133.97 9.64018 135.95 11.5202C137.92 13.4002 139.42 15.5602 140.44 18.0002C141.46 20.4402 141.97 22.9202 141.97 25.4502H134.47C134.47 24.0902 134.16 22.6602 133.54 21.1502C132.92 19.6402 131.98 18.2302 130.72 16.9402C129.45 15.6402 127.83 14.5602 125.86 13.7002C123.88 12.8402 121.54 12.4002 118.82 12.4002C114.38 12.4002 110.84 13.3702 108.22 15.3202C105.6 17.2602 104.29 19.7802 104.29 22.8602C104.29 25.4502 105.04 27.6302 106.56 29.3902C108.07 31.1502 110.56 32.7402 114.01 34.1602L127.71 39.9002C133.14 42.2502 137.09 44.9402 139.56 48.0002C142.03 51.0502 143.26 54.6502 143.26 58.7802C143.26 61.6802 142.66 64.2302 141.46 66.4202C140.26 68.6102 138.64 70.4302 136.6 71.8802C134.56 73.3302 132.19 74.4302 129.47 75.1702C126.75 75.9102 123.89 76.2802 120.86 76.2802L120.85 76.2702Z" fill="white"/>
<path d="M148.16 27.3999H155.47V52.6699C155.47 54.9499 155.82 57.0799 156.53 59.0599C157.24 61.0399 158.27 62.7599 159.63 64.2399C160.99 65.7199 162.64 66.8899 164.58 67.7599C166.52 68.6299 168.7 69.0599 171.11 69.0599C173.33 69.0599 175.4 68.6399 177.31 67.8099C179.22 66.9799 180.89 65.8099 182.31 64.2899C183.73 62.7799 184.87 60.9599 185.73 58.8299C186.59 56.6999 187.06 54.3699 187.12 51.8399V27.3999H194.43V74.7899H187.12V65.2599C186.57 66.4999 185.73 67.7299 184.62 68.9599C183.51 70.1899 182.2 71.3099 180.69 72.2899C179.18 73.2799 177.48 74.0899 175.6 74.7399C173.72 75.3899 171.73 75.7099 169.63 75.7099C166.54 75.7099 163.69 75.1399 161.07 73.9999C158.45 72.8599 156.18 71.2499 154.27 69.1899C152.36 67.1199 150.86 64.6199 149.78 61.6899C148.7 58.7599 148.16 55.5299 148.16 52.0199V27.3999Z" fill="white"/>
<path d="M224.15 10.55C221.99 10.55 220.15 11.34 218.64 12.91C217.13 14.48 216.37 16.6 216.37 19.25V27.4H229.14V33.88H216.37V74.79H209.06V33.88H201.01V27.4H209.06V19.44C209.06 17.34 209.41 15.34 210.12 13.42C210.83 11.51 211.85 9.82996 213.17 8.37996C214.5 6.92996 216.1 5.78996 217.98 4.95996C219.86 4.12996 221.94 3.70996 224.23 3.70996C225.22 3.70996 226.14 3.73996 227.01 3.79996C227.87 3.85996 228.61 3.94996 229.23 4.07996V10.56H224.14L224.15 10.55Z" fill="white"/>
<path d="M267.56 19.44C267.56 17.84 267.36 16.28 266.96 14.77C266.56 13.26 265.9 11.93 264.97 10.79C264.04 9.65 262.84 8.72 261.36 8.01C259.88 7.3 258.09 6.95 255.99 6.95C252.78 6.95 250.08 8.06 247.89 10.28C245.7 12.5 244.6 15.56 244.6 19.44V27.4H259.69V33.88H244.6V74.79H237.29V33.88H228.31V27.4H237.29V19.44C237.29 16.79 237.74 14.29 238.63 11.94C239.52 9.6 240.79 7.54 242.42 5.78C244.05 4.02 246.03 2.62 248.34 1.57C250.65 0.52 253.23 0 256.07 0C258.91 0 261.68 0.51 264.03 1.53C266.37 2.55 268.36 3.94 270 5.7C271.63 7.46 272.87 9.53 273.7 11.9C274.53 14.28 274.95 16.79 274.95 19.44H267.54H267.56ZM274.97 27.4V74.79H267.56V27.4H274.97Z" fill="white"/>
<path d="M324.4 68.59C322.18 70.87 319.62 72.63 316.72 73.87C313.82 75.1 310.61 75.72 307.09 75.72C303.57 75.72 300.5 75.07 297.51 73.78C294.52 72.48 291.91 70.73 289.69 68.5C287.47 66.27 285.71 63.67 284.41 60.68C283.11 57.69 282.47 54.49 282.47 51.1C282.47 47.71 283.12 44.51 284.41 41.52C285.71 38.53 287.46 35.92 289.69 33.7C291.92 31.48 294.52 29.72 297.51 28.42C300.5 27.12 303.7 26.48 307.09 26.48C310.79 26.48 314.14 27.17 317.13 28.56C320.12 29.95 322.7 31.78 324.86 34.07L319.77 39.07C318.16 37.4 316.28 36.11 314.12 35.18C311.96 34.25 309.62 33.79 307.09 33.79C304.56 33.79 302.42 34.24 300.29 35.13C298.16 36.03 296.31 37.26 294.74 38.83C293.17 40.4 291.93 42.24 291.04 44.34C290.14 46.44 289.7 48.69 289.7 51.1C289.7 53.51 290.15 55.77 291.04 57.9C291.93 60.03 293.17 61.88 294.74 63.45C296.31 65.02 298.16 66.26 300.29 67.15C302.42 68.05 304.69 68.49 307.09 68.49C309.62 68.49 311.92 68.04 313.99 67.15C316.06 66.26 317.89 65.04 319.5 63.49L324.41 68.58L324.4 68.59Z" fill="white"/>
<path d="M330.32 8.88979C330.32 7.40979 330.84 6.13979 331.89 5.09979C332.94 4.05979 334.2 3.52979 335.68 3.52979C337.16 3.52979 338.52 4.04979 339.57 5.09979C340.62 6.14979 341.14 7.40979 341.14 8.88979C341.14 10.3698 340.62 11.7298 339.57 12.7798C338.52 13.8298 337.22 14.3498 335.68 14.3498C334.14 14.3498 332.93 13.8298 331.89 12.7798C330.84 11.7298 330.32 10.4398 330.32 8.88979ZM339.39 27.3998V74.7898H331.98V27.3998H339.39Z" fill="white"/>
<path d="M395.11 51.3698C395.11 51.7998 395.09 52.2998 395.06 52.8498C395.03 53.4098 394.95 53.8698 394.83 54.2398H355.49C355.49 56.3998 355.95 58.3698 356.88 60.1598C357.81 61.9498 359.04 63.4898 360.58 64.7898C362.12 66.0898 363.88 67.0998 365.86 67.8398C367.83 68.5798 369.87 68.9498 371.97 68.9498C374.75 68.9498 377.22 68.4998 379.38 67.6098C381.54 66.7198 383.42 65.5298 385.03 64.0498L390.12 68.4898C387.84 70.7698 385.17 72.5498 382.11 73.8098C379.06 75.0698 375.65 75.7098 371.88 75.7098C368.98 75.7098 366.09 75.1798 363.22 74.1398C360.35 73.0898 357.77 71.5298 355.49 69.4698C353.21 67.3998 351.37 64.8398 349.98 61.7898C348.59 58.7398 347.9 55.1698 347.9 51.0998C347.9 47.7098 348.45 44.5098 349.57 41.5198C350.68 38.5298 352.27 35.9198 354.34 33.6998C356.41 31.4798 358.89 29.7398 361.79 28.4698C364.69 27.2098 367.9 26.5698 371.42 26.5698C374.94 26.5698 378.25 27.2298 381.18 28.5598C384.11 29.8898 386.61 31.6798 388.68 33.9298C390.75 36.1798 392.34 38.8098 393.45 41.7998C394.56 44.7898 395.12 47.9898 395.12 51.3798L395.11 51.3698ZM371.51 33.1298C369.1 33.1298 366.91 33.5498 364.94 34.3798C362.96 35.2098 361.28 36.3198 359.9 37.7098C358.52 39.0998 357.43 40.6998 356.66 42.5198C355.89 44.3398 355.5 46.2698 355.5 48.3098H387.53C387.53 46.3998 387.14 44.5298 386.37 42.7098C385.6 40.8898 384.52 39.2698 383.13 37.8498C381.74 36.4298 380.06 35.2898 378.09 34.4298C376.11 33.5698 373.92 33.1298 371.52 33.1298H371.51Z" fill="white"/>
<path d="M447.32 74.79H440.01V49.61C440.01 47.33 439.65 45.18 438.95 43.18C438.24 41.18 437.21 39.43 435.85 37.95C434.49 36.47 432.84 35.3 430.9 34.43C428.96 33.57 426.78 33.13 424.37 33.13C422.15 33.13 420.08 33.56 418.17 34.43C416.26 35.3 414.59 36.48 413.17 37.99C411.75 39.5 410.61 41.32 409.75 43.45C408.89 45.58 408.42 47.91 408.36 50.44V74.78H401.14V27.4H408.36V37.03C408.98 35.86 409.84 34.64 410.95 33.37C412.06 32.11 413.37 30.96 414.88 29.95C416.39 28.93 418.07 28.1 419.92 27.45C421.77 26.8 423.75 26.48 425.84 26.48C428.99 26.48 431.87 27.05 434.49 28.19C437.11 29.33 439.36 30.95 441.25 33.05C443.13 35.15 444.61 37.65 445.69 40.55C446.77 43.45 447.31 46.66 447.31 50.18V74.8L447.32 74.79Z" fill="white"/>
<path d="M495.17 68.59C492.95 70.87 490.39 72.63 487.49 73.87C484.59 75.1 481.38 75.72 477.86 75.72C474.34 75.72 471.27 75.07 468.28 73.78C465.29 72.48 462.68 70.73 460.46 68.5C458.24 66.27 456.48 63.67 455.18 60.68C453.88 57.69 453.24 54.49 453.24 51.1C453.24 47.71 453.89 44.51 455.18 41.52C456.48 38.53 458.23 35.92 460.46 33.7C462.69 31.48 465.29 29.72 468.28 28.42C471.27 27.12 474.47 26.48 477.86 26.48C481.56 26.48 484.91 27.17 487.9 28.56C490.89 29.95 493.47 31.78 495.63 34.07L490.54 39.07C488.93 37.4 487.05 36.11 484.89 35.18C482.73 34.25 480.39 33.79 477.86 33.79C475.33 33.79 473.19 34.24 471.06 35.13C468.93 36.03 467.08 37.26 465.51 38.83C463.94 40.4 462.7 42.24 461.81 44.34C460.91 46.44 460.47 48.69 460.47 51.1C460.47 53.51 460.92 55.77 461.81 57.9C462.7 60.03 463.94 61.88 465.51 63.45C467.08 65.02 468.93 66.26 471.06 67.15C473.19 68.05 475.46 68.49 477.86 68.49C480.39 68.49 482.69 68.04 484.76 67.15C486.83 66.26 488.66 65.04 490.27 63.49L495.18 68.58L495.17 68.59Z" fill="white"/>
<path d="M520.72 68.5899L537.2 27.3999H545.35L524.15 79.1399V98.4899H516.93V79.3299L495.73 27.3999H503.88L520.26 68.5899H520.72Z" fill="white"/>
<path d="M99.3801 151.9V83.8701H123.45C126.16 83.8701 128.68 84.3701 130.99 85.3501C133.3 86.3401 135.29 87.6601 136.96 89.3301C138.63 91.0001 139.94 92.9601 140.89 95.2101C141.85 97.4601 142.32 99.8501 142.32 102.38C142.32 103.8 142.14 105.22 141.77 106.64C141.4 108.06 140.86 109.39 140.15 110.62C139.44 111.85 138.59 112.97 137.6 113.95C136.61 114.93 135.5 115.74 134.27 116.36C136.12 117.04 137.77 117.95 139.22 119.09C140.67 120.23 141.9 121.54 142.92 123.02C143.94 124.5 144.73 126.09 145.28 127.79C145.84 129.49 146.11 131.2 146.11 132.93C146.11 135.52 145.63 137.97 144.68 140.29C143.72 142.6 142.4 144.63 140.7 146.35C139 148.08 137 149.44 134.68 150.42C132.37 151.41 129.85 151.9 127.14 151.9H99.3701H99.3801ZM106.6 113.86H122.89C126.47 113.86 129.38 112.83 131.64 110.76C133.89 108.69 135.02 105.9 135.02 102.38C135.02 100.78 134.73 99.2601 134.14 97.8401C133.55 96.4201 132.72 95.1901 131.64 94.1401C130.56 93.0901 129.28 92.2601 127.8 91.6401C126.32 91.0201 124.68 90.7101 122.89 90.7101H106.6V113.85V113.86ZM106.69 145.05H126.68C128.41 145.05 130 144.74 131.45 144.12C132.9 143.5 134.15 142.66 135.2 141.58C136.25 140.5 137.08 139.24 137.7 137.79C138.32 136.34 138.63 134.78 138.63 133.12C138.63 131.46 138.31 129.76 137.66 128.21C137.01 126.67 136.1 125.34 134.93 124.23C133.76 123.12 132.4 122.24 130.86 121.59C129.32 120.94 127.62 120.62 125.77 120.62H106.7V145.06L106.69 145.05Z" fill="white"/>
<path d="M152.05 104.5H159.36V129.77C159.36 132.05 159.71 134.18 160.42 136.16C161.13 138.14 162.16 139.86 163.52 141.34C164.88 142.82 166.53 143.99 168.47 144.86C170.41 145.73 172.59 146.16 175 146.16C177.22 146.16 179.29 145.74 181.2 144.91C183.11 144.08 184.78 142.91 186.2 141.39C187.62 139.88 188.76 138.06 189.62 135.93C190.48 133.8 190.95 131.47 191.01 128.94V104.5H198.32V151.89H191.01V142.36C190.46 143.6 189.62 144.83 188.51 146.06C187.4 147.29 186.09 148.41 184.58 149.39C183.07 150.38 181.37 151.19 179.49 151.84C177.61 152.49 175.62 152.81 173.52 152.81C170.43 152.81 167.58 152.24 164.96 151.1C162.34 149.96 160.07 148.35 158.16 146.29C156.25 144.22 154.75 141.72 153.67 138.79C152.59 135.86 152.05 132.63 152.05 129.12V104.5Z" fill="white"/>
<path d="M213.69 116.72C213.69 119.81 216.07 122.06 220.82 123.48L232.02 126.63C236.83 127.99 240.29 129.81 242.39 132.09C244.49 134.37 245.54 137.12 245.54 140.33C245.54 142.12 245.15 143.8 244.38 145.37C243.61 146.94 242.47 148.32 240.96 149.49C239.45 150.66 237.54 151.59 235.22 152.27C232.91 152.95 230.18 153.29 227.03 153.29C224.75 153.29 222.54 153.06 220.41 152.6C218.28 152.14 216.31 151.51 214.49 150.7C212.67 149.9 211.03 148.96 209.58 147.88C208.13 146.8 206.94 145.64 206.02 144.41L211.57 140.34C212.37 141.33 213.37 142.22 214.58 143.02C215.78 143.82 217.08 144.5 218.47 145.06C219.86 145.62 221.28 146.03 222.73 146.31C224.18 146.59 225.61 146.73 227.03 146.73C230.73 146.73 233.49 146.11 235.31 144.88C237.13 143.65 238.04 142.14 238.04 140.34C238.04 138.86 237.48 137.53 236.37 136.36C235.26 135.19 233.32 134.17 230.54 133.31L219.9 130.26C215.27 129.03 211.86 127.25 209.67 124.94C207.48 122.63 206.38 119.9 206.38 116.75C206.38 114.96 206.76 113.25 207.54 111.61C208.31 109.98 209.48 108.53 211.06 107.26C212.63 106 214.59 104.99 216.94 104.25C219.28 103.51 222 103.14 225.09 103.14C228.18 103.14 230.74 103.59 233.14 104.48C235.55 105.38 237.6 106.56 239.3 108.04C241 109.52 242.29 111.19 243.19 113.04C244.09 114.89 244.53 116.77 244.53 118.69H237.31C237.12 116.1 235.91 113.91 233.65 112.12C231.4 110.33 228.54 109.44 225.09 109.44C223.11 109.44 221.4 109.66 219.95 110.09C218.5 110.52 217.31 111.08 216.39 111.76C215.46 112.44 214.78 113.21 214.35 114.07C213.92 114.93 213.7 115.83 213.7 116.75L213.69 116.72Z" fill="white"/>
<path d="M252.66 85.9899C252.66 84.5099 253.18 83.2399 254.23 82.1999C255.28 81.1599 256.54 80.6299 258.02 80.6299C259.5 80.6299 260.86 81.1499 261.91 82.1999C262.96 83.2499 263.48 84.5099 263.48 85.9899C263.48 87.4699 262.96 88.8299 261.91 89.8799C260.86 90.9299 259.56 91.4499 258.02 91.4499C256.48 91.4499 255.27 90.9299 254.23 89.8799C253.18 88.8299 252.66 87.5399 252.66 85.9899ZM261.73 104.5V151.89H254.32V104.5H261.73Z" fill="white"/>
<path d="M319.49 151.9H312.18V126.72C312.18 124.44 311.82 122.29 311.12 120.29C310.41 118.29 309.38 116.54 308.02 115.06C306.66 113.58 305.01 112.41 303.07 111.54C301.13 110.68 298.95 110.24 296.54 110.24C294.32 110.24 292.25 110.67 290.34 111.54C288.43 112.41 286.76 113.59 285.34 115.1C283.92 116.61 282.78 118.43 281.92 120.56C281.06 122.69 280.59 125.02 280.53 127.55V151.89H273.31V104.5H280.53V114.13C281.15 112.96 282.01 111.74 283.12 110.47C284.23 109.21 285.54 108.06 287.05 107.05C288.56 106.03 290.24 105.2 292.09 104.55C293.94 103.9 295.92 103.58 298.01 103.58C301.16 103.58 304.04 104.15 306.66 105.29C309.28 106.43 311.53 108.05 313.42 110.15C315.3 112.25 316.78 114.75 317.86 117.65C318.94 120.55 319.48 123.76 319.48 127.28V151.9H319.49Z" fill="white"/>
<path d="M373.73 128.48C373.73 128.91 373.71 129.41 373.68 129.96C373.65 130.52 373.57 130.98 373.45 131.35H334.11C334.11 133.51 334.57 135.48 335.5 137.27C336.43 139.06 337.66 140.6 339.2 141.9C340.74 143.2 342.5 144.21 344.48 144.95C346.45 145.69 348.49 146.06 350.59 146.06C353.37 146.06 355.84 145.61 358 144.72C360.16 143.83 362.04 142.64 363.65 141.16L368.74 145.6C366.46 147.88 363.79 149.66 360.73 150.92C357.68 152.18 354.27 152.82 350.5 152.82C347.6 152.82 344.71 152.29 341.84 151.25C338.97 150.2 336.39 148.64 334.11 146.58C331.83 144.51 329.99 141.95 328.6 138.9C327.21 135.85 326.52 132.28 326.52 128.21C326.52 124.82 327.07 121.62 328.19 118.63C329.3 115.64 330.89 113.03 332.96 110.81C335.03 108.59 337.51 106.85 340.41 105.58C343.31 104.32 346.52 103.68 350.04 103.68C353.56 103.68 356.87 104.34 359.8 105.67C362.73 107 365.23 108.79 367.3 111.04C369.37 113.29 370.96 115.92 372.07 118.91C373.18 121.9 373.74 125.1 373.74 128.49L373.73 128.48ZM350.13 110.24C347.72 110.24 345.53 110.66 343.56 111.49C341.58 112.32 339.9 113.43 338.52 114.82C337.14 116.21 336.05 117.81 335.28 119.63C334.51 121.45 334.12 123.38 334.12 125.42H366.15C366.15 123.51 365.76 121.64 364.99 119.82C364.22 118 363.14 116.38 361.75 114.96C360.36 113.54 358.68 112.4 356.71 111.54C354.73 110.68 352.54 110.24 350.14 110.24H350.13Z" fill="white"/>
<path d="M384.37 116.72C384.37 119.81 386.75 122.06 391.5 123.48L402.7 126.63C407.51 127.99 410.97 129.81 413.07 132.09C415.17 134.37 416.22 137.12 416.22 140.33C416.22 142.12 415.83 143.8 415.06 145.37C414.29 146.94 413.15 148.32 411.64 149.49C410.13 150.66 408.22 151.59 405.9 152.27C403.59 152.95 400.86 153.29 397.71 153.29C395.43 153.29 393.22 153.06 391.09 152.6C388.96 152.14 386.99 151.51 385.17 150.7C383.35 149.9 381.71 148.96 380.26 147.88C378.81 146.8 377.62 145.64 376.7 144.41L382.25 140.34C383.05 141.33 384.05 142.22 385.26 143.02C386.46 143.82 387.76 144.5 389.15 145.06C390.54 145.62 391.96 146.03 393.41 146.31C394.86 146.59 396.29 146.73 397.71 146.73C401.41 146.73 404.17 146.11 405.99 144.88C407.81 143.65 408.72 142.14 408.72 140.34C408.72 138.86 408.16 137.53 407.05 136.36C405.94 135.19 404 134.17 401.22 133.31L390.58 130.26C385.95 129.03 382.54 127.25 380.35 124.94C378.16 122.63 377.06 119.9 377.06 116.75C377.06 114.96 377.44 113.25 378.22 111.61C378.99 109.98 380.16 108.53 381.74 107.26C383.31 106 385.27 104.99 387.62 104.25C389.96 103.51 392.68 103.14 395.77 103.14C398.86 103.14 401.42 103.59 403.82 104.48C406.23 105.38 408.28 106.56 409.98 108.04C411.68 109.52 412.97 111.19 413.87 113.04C414.77 114.89 415.21 116.77 415.21 118.69H407.99C407.8 116.1 406.59 113.91 404.33 112.12C402.08 110.33 399.22 109.44 395.77 109.44C393.79 109.44 392.08 109.66 390.63 110.09C389.18 110.52 387.99 111.08 387.07 111.76C386.14 112.44 385.46 113.21 385.03 114.07C384.6 114.93 384.38 115.83 384.38 116.75L384.37 116.72Z" fill="white"/>
<path d="M427.04 116.72C427.04 119.81 429.42 122.06 434.17 123.48L445.37 126.63C450.18 127.99 453.64 129.81 455.74 132.09C457.84 134.37 458.89 137.12 458.89 140.33C458.89 142.12 458.5 143.8 457.73 145.37C456.96 146.94 455.82 148.32 454.31 149.49C452.8 150.66 450.89 151.59 448.57 152.27C446.26 152.95 443.53 153.29 440.38 153.29C438.1 153.29 435.89 153.06 433.76 152.6C431.63 152.14 429.66 151.51 427.84 150.7C426.02 149.9 424.38 148.96 422.93 147.88C421.48 146.8 420.29 145.64 419.37 144.41L424.92 140.34C425.72 141.33 426.72 142.22 427.93 143.02C429.13 143.82 430.43 144.5 431.82 145.06C433.21 145.62 434.63 146.03 436.08 146.31C437.53 146.59 438.96 146.73 440.38 146.73C444.08 146.73 446.84 146.11 448.66 144.88C450.48 143.65 451.39 142.14 451.39 140.34C451.39 138.86 450.83 137.53 449.72 136.36C448.61 135.19 446.67 134.17 443.89 133.31L433.25 130.26C428.62 129.03 425.21 127.25 423.02 124.94C420.83 122.63 419.73 119.9 419.73 116.75C419.73 114.96 420.11 113.25 420.89 111.61C421.66 109.98 422.83 108.53 424.41 107.26C425.98 106 427.94 104.99 430.29 104.25C432.63 103.51 435.35 103.14 438.44 103.14C441.53 103.14 444.09 103.59 446.49 104.48C448.9 105.38 450.95 106.56 452.65 108.04C454.35 109.52 455.64 111.19 456.54 113.04C457.44 114.89 457.88 116.77 457.88 118.69H450.66C450.47 116.1 449.26 113.91 447 112.12C444.75 110.33 441.89 109.44 438.44 109.44C436.46 109.44 434.75 109.66 433.3 110.09C431.85 110.52 430.66 111.08 429.74 111.76C428.81 112.44 428.13 113.21 427.7 114.07C427.27 114.93 427.05 115.83 427.05 116.75L427.04 116.72Z" fill="white"/>
<path d="M149.83 160.97H157.51V228.54L156.4 229.1L107.07 177.64V229.01H99.3896V161.44L100.41 160.98L149.84 212.44V160.98L149.83 160.97Z" fill="white"/>
<path d="M211.56 205.58C211.56 206.01 211.54 206.51 211.51 207.06C211.48 207.62 211.4 208.08 211.28 208.45H171.94C171.94 210.61 172.4 212.58 173.33 214.37C174.26 216.16 175.49 217.7 177.03 219C178.57 220.3 180.33 221.31 182.31 222.05C184.28 222.79 186.32 223.16 188.42 223.16C191.2 223.16 193.67 222.71 195.83 221.82C197.99 220.93 199.87 219.74 201.48 218.26L206.57 222.7C204.29 224.98 201.62 226.76 198.56 228.02C195.51 229.28 192.1 229.92 188.33 229.92C185.43 229.92 182.54 229.39 179.67 228.35C176.8 227.3 174.22 225.74 171.94 223.68C169.66 221.61 167.82 219.05 166.43 216C165.04 212.95 164.35 209.38 164.35 205.31C164.35 201.92 164.9 198.72 166.02 195.73C167.13 192.74 168.72 190.13 170.79 187.91C172.86 185.69 175.34 183.95 178.24 182.68C181.14 181.42 184.35 180.78 187.87 180.78C191.39 180.78 194.7 181.44 197.63 182.77C200.56 184.1 203.06 185.89 205.13 188.14C207.2 190.39 208.79 193.02 209.9 196.01C211.01 199 211.57 202.2 211.57 205.59L211.56 205.58ZM187.96 187.34C185.55 187.34 183.36 187.76 181.39 188.59C179.41 189.42 177.73 190.53 176.35 191.92C174.97 193.31 173.88 194.91 173.11 196.73C172.34 198.55 171.95 200.48 171.95 202.52H203.98C203.98 200.61 203.59 198.74 202.82 196.92C202.05 195.1 200.97 193.48 199.58 192.06C198.19 190.64 196.51 189.5 194.54 188.64C192.56 187.78 190.37 187.34 187.97 187.34H187.96Z" fill="white"/>
<path d="M223.32 229V188.09H212.4V181.61H223.32V169.76H230.73V181.61H241.65V188.09H230.73V229H223.32Z" fill="white"/>
<path d="M290.7 222.34H291.16L301.71 181.61H309.39L296.71 229H285.79L275.33 192.81H274.68L264.22 229H253.3L240.62 181.61H248.3L258.85 222.34H259.31L270.97 181.61H279.02L290.68 222.34H290.7Z" fill="white"/>
<path d="M311.8 205.3C311.8 201.91 312.43 198.73 313.7 195.77C314.96 192.81 316.69 190.23 318.88 188.04C321.07 185.85 323.65 184.12 326.61 182.86C329.57 181.6 332.75 180.96 336.14 180.96C339.53 180.96 342.71 181.59 345.67 182.86C348.63 184.13 351.22 185.85 353.45 188.04C355.67 190.23 357.41 192.81 358.68 195.77C359.94 198.73 360.58 201.91 360.58 205.3C360.58 208.69 359.95 211.87 358.68 214.83C357.41 217.79 355.67 220.38 353.45 222.61C351.23 224.84 348.64 226.58 345.67 227.84C342.71 229.1 339.53 229.74 336.14 229.74C332.75 229.74 329.57 229.11 326.61 227.84C323.65 226.58 321.07 224.83 318.88 222.61C316.69 220.39 314.96 217.8 313.7 214.83C312.43 211.87 311.8 208.69 311.8 205.3ZM319.02 205.3C319.02 207.71 319.47 209.96 320.36 212.06C321.25 214.16 322.47 215.98 324.02 217.52C325.56 219.06 327.38 220.28 329.48 221.18C331.58 222.08 333.8 222.52 336.14 222.52C338.48 222.52 340.78 222.07 342.85 221.18C344.92 220.29 346.74 219.07 348.31 217.52C349.88 215.98 351.12 214.16 352.01 212.06C352.9 209.96 353.35 207.71 353.35 205.3C353.35 202.89 352.9 200.66 352.01 198.59C351.11 196.52 349.88 194.7 348.31 193.13C346.74 191.56 344.92 190.32 342.85 189.43C340.78 188.54 338.55 188.09 336.14 188.09C333.73 188.09 331.57 188.54 329.48 189.43C327.38 190.33 325.56 191.56 324.02 193.13C322.48 194.7 321.26 196.52 320.36 198.59C319.46 200.66 319.02 202.89 319.02 205.3Z" fill="white"/>
<path d="M374.65 229H367.25V181.61H373.64V190.03C375.24 187.25 377.4 185.16 380.12 183.74C382.83 182.32 385.83 181.61 389.1 181.61H391.41V188.09H389.1C387 188.09 385.07 188.45 383.31 189.15C381.55 189.86 380.02 190.86 378.73 192.16C377.44 193.46 376.43 194.98 375.72 196.74C375.01 198.5 374.66 200.43 374.66 202.53V229H374.65Z" fill="white"/>
<path d="M403.53 157.91V201.79H415.28L427.59 181.61H435.55L421.3 205.31L435.55 229.01H427.59L415.28 208.92H403.53V229.01H396.22V157.92H403.53V157.91Z" fill="white"/>
<path d="M0 85.9899C0 84.5099 0.52 83.2399 1.57 82.1999C2.62 81.1599 3.88 80.6299 5.36 80.6299C6.84 80.6299 8.2 81.1499 9.25 82.1999C10.3 83.2499 10.82 84.5099 10.82 85.9899C10.82 87.4699 10.3 88.8299 9.25 89.8799C8.2 90.9299 6.9 91.4499 5.36 91.4499C3.82 91.4499 2.61 90.9299 1.57 89.8799C0.52 88.8299 0 87.5399 0 85.9899ZM9.07 104.5V151.89H1.67V104.5H9.07Z" fill="white"/>
<path d="M67.7503 151.9H60.4403V126.72C60.4403 124.44 60.0803 122.29 59.3803 120.29C58.6703 118.29 57.6403 116.54 56.2803 115.06C54.9203 113.58 53.2703 112.41 51.3303 111.54C49.3903 110.68 47.2103 110.24 44.8003 110.24C42.5803 110.24 40.5103 110.67 38.6003 111.54C36.6903 112.41 35.0203 113.59 33.6003 115.1C32.1803 116.61 31.0403 118.43 30.1803 120.56C29.3103 122.69 28.8503 125.02 28.7903 127.55V151.89H21.5703V104.5H28.7903V114.13C29.4103 112.96 30.2703 111.74 31.3803 110.47C32.4903 109.21 33.8003 108.06 35.3103 107.05C36.8203 106.03 38.5003 105.2 40.3503 104.55C42.2003 103.9 44.1803 103.58 46.2703 103.58C49.4203 103.58 52.3003 104.15 54.9203 105.29C57.5403 106.43 59.8003 108.05 61.6803 110.15C63.5603 112.25 65.0403 114.75 66.1203 117.65C67.2003 120.55 67.7403 123.76 67.7403 127.28V151.9H67.7503Z" fill="white"/>
</g>
<defs>
<clipPath id="clip0_497_252">
<rect width="545.34" height="229.93" fill="white"/>
</clipPath>
</defs>
</svg>
