<svg xmlns="http://www.w3.org/2000/svg" xmlns:xlink="http://www.w3.org/1999/xlink" width="1545" zoomAndPan="magnify" viewBox="0 0 1158.75 326.250004" height="435" preserveAspectRatio="xMidYMid meet" version="1.0"><defs><g/><clipPath id="d3e39c91f0"><path d="M 24.742188 115.671875 L 70.953125 115.671875 L 70.953125 151.519531 L 24.742188 151.519531 Z M 24.742188 115.671875 " clip-rule="nonzero"/></clipPath><clipPath id="72be6e99ac"><path d="M 41.953125 115.671875 L 53.710938 115.671875 C 58.277344 115.671875 62.652344 117.484375 65.878906 120.714844 C 69.109375 123.941406 70.921875 128.320312 70.921875 132.882812 L 70.921875 134.3125 C 70.921875 138.875 69.109375 143.253906 65.878906 146.480469 C 62.652344 149.707031 58.277344 151.519531 53.710938 151.519531 L 41.953125 151.519531 C 37.386719 151.519531 33.011719 149.707031 29.785156 146.480469 C 26.554688 143.253906 24.742188 138.875 24.742188 134.3125 L 24.742188 132.882812 C 24.742188 128.320312 26.554688 123.941406 29.785156 120.714844 C 33.011719 117.484375 37.386719 115.671875 41.953125 115.671875 Z M 41.953125 115.671875 " clip-rule="nonzero"/></clipPath><clipPath id="6cd170d778"><path d="M 0.742188 0.671875 L 46.953125 0.671875 L 46.953125 36.519531 L 0.742188 36.519531 Z M 0.742188 0.671875 " clip-rule="nonzero"/></clipPath><clipPath id="4375405429"><path d="M 17.953125 0.671875 L 29.710938 0.671875 C 34.277344 0.671875 38.652344 2.484375 41.878906 5.714844 C 45.109375 8.941406 46.921875 13.320312 46.921875 17.882812 L 46.921875 19.3125 C 46.921875 23.875 45.109375 28.253906 41.878906 31.480469 C 38.652344 34.707031 34.277344 36.519531 29.710938 36.519531 L 17.953125 36.519531 C 13.386719 36.519531 9.011719 34.707031 5.785156 31.480469 C 2.554688 28.253906 0.742188 23.875 0.742188 19.3125 L 0.742188 17.882812 C 0.742188 13.320312 2.554688 8.941406 5.785156 5.714844 C 9.011719 2.484375 13.386719 0.671875 17.953125 0.671875 Z M 17.953125 0.671875 " clip-rule="nonzero"/></clipPath><clipPath id="6d18f49c46"><rect x="0" width="47" y="0" height="37"/></clipPath><clipPath id="95308520bd"><path d="M 12.972656 182.214844 L 101.050781 182.214844 L 101.050781 218.0625 L 12.972656 218.0625 Z M 12.972656 182.214844 " clip-rule="nonzero"/></clipPath><clipPath id="c5a2dedf77"><path d="M 30.179688 182.214844 L 83.816406 182.214844 C 88.378906 182.214844 92.757812 184.027344 95.984375 187.253906 C 99.214844 190.480469 101.027344 194.859375 101.027344 199.425781 L 101.027344 200.851562 C 101.027344 205.417969 99.214844 209.792969 95.984375 213.023438 C 92.757812 216.25 88.378906 218.0625 83.816406 218.0625 L 30.179688 218.0625 C 25.617188 218.0625 21.238281 216.25 18.011719 213.023438 C 14.785156 209.792969 12.972656 205.417969 12.972656 200.851562 L 12.972656 199.425781 C 12.972656 194.859375 14.785156 190.480469 18.011719 187.253906 C 21.238281 184.027344 25.617188 182.214844 30.179688 182.214844 Z M 30.179688 182.214844 " clip-rule="nonzero"/></clipPath><clipPath id="1bff15c44a"><path d="M 0.972656 0.214844 L 89.050781 0.214844 L 89.050781 36.0625 L 0.972656 36.0625 Z M 0.972656 0.214844 " clip-rule="nonzero"/></clipPath><clipPath id="6753070f94"><path d="M 18.179688 0.214844 L 71.816406 0.214844 C 76.378906 0.214844 80.757812 2.027344 83.984375 5.253906 C 87.214844 8.480469 89.027344 12.859375 89.027344 17.425781 L 89.027344 18.851562 C 89.027344 23.417969 87.214844 27.792969 83.984375 31.023438 C 80.757812 34.25 76.378906 36.0625 71.816406 36.0625 L 18.179688 36.0625 C 13.617188 36.0625 9.238281 34.25 6.011719 31.023438 C 2.785156 27.792969 0.972656 23.417969 0.972656 18.851562 L 0.972656 17.425781 C 0.972656 12.859375 2.785156 8.480469 6.011719 5.253906 C 9.238281 2.027344 13.617188 0.214844 18.179688 0.214844 Z M 18.179688 0.214844 " clip-rule="nonzero"/></clipPath><clipPath id="4d774d1b28"><rect x="0" width="90" y="0" height="37"/></clipPath><clipPath id="a3a5fc1929"><path d="M 1.203125 248.753906 L 133.957031 248.753906 L 133.957031 284.605469 L 1.203125 284.605469 Z M 1.203125 248.753906 " clip-rule="nonzero"/></clipPath><clipPath id="2d62aac2f0"><path d="M 18.414062 248.753906 L 116.707031 248.753906 C 121.269531 248.753906 125.648438 250.566406 128.875 253.796875 C 132.101562 257.023438 133.914062 261.402344 133.914062 265.964844 L 133.914062 267.394531 C 133.914062 271.957031 132.101562 276.335938 128.875 279.5625 C 125.648438 282.789062 121.269531 284.605469 116.707031 284.605469 L 18.414062 284.605469 C 13.851562 284.605469 9.472656 282.789062 6.246094 279.5625 C 3.015625 276.335938 1.203125 271.957031 1.203125 267.394531 L 1.203125 265.964844 C 1.203125 261.402344 3.015625 257.023438 6.246094 253.796875 C 9.472656 250.566406 13.851562 248.753906 18.414062 248.753906 Z M 18.414062 248.753906 " clip-rule="nonzero"/></clipPath><clipPath id="62520687bf"><path d="M 0.203125 0.753906 L 132.957031 0.753906 L 132.957031 36.605469 L 0.203125 36.605469 Z M 0.203125 0.753906 " clip-rule="nonzero"/></clipPath><clipPath id="1fdf085ff7"><path d="M 17.414062 0.753906 L 115.707031 0.753906 C 120.269531 0.753906 124.648438 2.566406 127.875 5.796875 C 131.101562 9.023438 132.914062 13.402344 132.914062 17.964844 L 132.914062 19.394531 C 132.914062 23.957031 131.101562 28.335938 127.875 31.5625 C 124.648438 34.789062 120.269531 36.605469 115.707031 36.605469 L 17.414062 36.605469 C 12.851562 36.605469 8.472656 34.789062 5.246094 31.5625 C 2.015625 28.335938 0.203125 23.957031 0.203125 19.394531 L 0.203125 17.964844 C 0.203125 13.402344 2.015625 9.023438 5.246094 5.796875 C 8.472656 2.566406 12.851562 0.753906 17.414062 0.753906 Z M 17.414062 0.753906 " clip-rule="nonzero"/></clipPath><clipPath id="707e460d6e"><rect x="0" width="133" y="0" height="37"/></clipPath><clipPath id="d60d5c074c"><path d="M 147.816406 248.753906 L 194.027344 248.753906 L 194.027344 284.601562 L 147.816406 284.601562 Z M 147.816406 248.753906 " clip-rule="nonzero"/></clipPath><clipPath id="f0b141b82d"><path d="M 176.816406 284.601562 L 165.058594 284.601562 C 160.496094 284.601562 156.117188 282.789062 152.890625 279.5625 C 149.664062 276.332031 147.847656 271.957031 147.847656 267.390625 L 147.847656 265.964844 C 147.847656 261.398438 149.664062 257.023438 152.890625 253.792969 C 156.117188 250.566406 160.496094 248.753906 165.058594 248.753906 L 176.816406 248.753906 C 181.382812 248.753906 185.757812 250.566406 188.988281 253.792969 C 192.214844 257.023438 194.027344 261.398438 194.027344 265.964844 L 194.027344 267.390625 C 194.027344 271.957031 192.214844 276.332031 188.988281 279.5625 C 185.757812 282.789062 181.382812 284.601562 176.816406 284.601562 Z M 176.816406 284.601562 " clip-rule="nonzero"/></clipPath><clipPath id="2ca1b6f816"><path d="M 0.816406 0.753906 L 47.027344 0.753906 L 47.027344 36.601562 L 0.816406 36.601562 Z M 0.816406 0.753906 " clip-rule="nonzero"/></clipPath><clipPath id="3dd74b7473"><path d="M 29.816406 36.601562 L 18.058594 36.601562 C 13.496094 36.601562 9.117188 34.789062 5.890625 31.5625 C 2.664062 28.332031 0.847656 23.957031 0.847656 19.390625 L 0.847656 17.964844 C 0.847656 13.398438 2.664062 9.023438 5.890625 5.792969 C 9.117188 2.566406 13.496094 0.753906 18.058594 0.753906 L 29.816406 0.753906 C 34.382812 0.753906 38.757812 2.566406 41.988281 5.792969 C 45.214844 9.023438 47.027344 13.398438 47.027344 17.964844 L 47.027344 19.390625 C 47.027344 23.957031 45.214844 28.332031 41.988281 31.5625 C 38.757812 34.789062 34.382812 36.601562 29.816406 36.601562 Z M 29.816406 36.601562 " clip-rule="nonzero"/></clipPath><clipPath id="8c3ce43003"><rect x="0" width="48" y="0" height="37"/></clipPath><clipPath id="d02abff6bd"><path d="M 84.8125 115.671875 L 217.566406 115.671875 L 217.566406 151.519531 L 84.8125 151.519531 Z M 84.8125 115.671875 " clip-rule="nonzero"/></clipPath><clipPath id="7e27d3807f"><path d="M 200.355469 151.519531 L 102.0625 151.519531 C 97.5 151.519531 93.121094 149.707031 89.894531 146.480469 C 86.667969 143.25 84.855469 138.875 84.855469 134.308594 L 84.855469 132.882812 C 84.855469 128.316406 86.667969 123.9375 89.894531 120.710938 C 93.121094 117.484375 97.5 115.671875 102.0625 115.671875 L 200.355469 115.671875 C 204.917969 115.671875 209.296875 117.484375 212.523438 120.710938 C 215.753906 123.9375 217.566406 128.316406 217.566406 132.882812 L 217.566406 134.308594 C 217.566406 138.875 215.753906 143.25 212.523438 146.480469 C 209.296875 149.707031 204.917969 151.519531 200.355469 151.519531 Z M 200.355469 151.519531 " clip-rule="nonzero"/></clipPath><clipPath id="522856a215"><path d="M 0.8125 0.671875 L 133.566406 0.671875 L 133.566406 36.519531 L 0.8125 36.519531 Z M 0.8125 0.671875 " clip-rule="nonzero"/></clipPath><clipPath id="6a0b5bc2f4"><path d="M 116.355469 36.519531 L 18.0625 36.519531 C 13.5 36.519531 9.121094 34.707031 5.894531 31.480469 C 2.667969 28.25 0.855469 23.875 0.855469 19.308594 L 0.855469 17.882812 C 0.855469 13.316406 2.667969 8.9375 5.894531 5.710938 C 9.121094 2.484375 13.5 0.671875 18.0625 0.671875 L 116.355469 0.671875 C 120.917969 0.671875 125.296875 2.484375 128.523438 5.710938 C 131.753906 8.9375 133.566406 13.316406 133.566406 17.882812 L 133.566406 19.308594 C 133.566406 23.875 131.753906 28.25 128.523438 31.480469 C 125.296875 34.707031 120.917969 36.519531 116.355469 36.519531 Z M 116.355469 36.519531 " clip-rule="nonzero"/></clipPath><clipPath id="e6ba790215"><rect x="0" width="134" y="0" height="37"/></clipPath><clipPath id="448533784e"><path d="M 114.34375 182.214844 L 205.925781 182.214844 L 205.925781 218.0625 L 114.34375 218.0625 Z M 114.34375 182.214844 " clip-rule="nonzero"/></clipPath><clipPath id="668ab7ca91"><path d="M 131.554688 182.214844 L 188.59375 182.214844 C 193.15625 182.214844 197.535156 184.027344 200.761719 187.253906 C 203.988281 190.480469 205.800781 194.859375 205.800781 199.425781 L 205.800781 200.851562 C 205.800781 205.417969 203.988281 209.792969 200.761719 213.023438 C 197.535156 216.25 193.15625 218.0625 188.59375 218.0625 L 131.554688 218.0625 C 126.992188 218.0625 122.613281 216.25 119.386719 213.023438 C 116.15625 209.792969 114.34375 205.417969 114.34375 200.851562 L 114.34375 199.425781 C 114.34375 194.859375 116.15625 190.480469 119.386719 187.253906 C 122.613281 184.027344 126.992188 182.214844 131.554688 182.214844 Z M 131.554688 182.214844 " clip-rule="nonzero"/></clipPath><clipPath id="6ee01353f2"><path d="M 0.34375 0.214844 L 91.925781 0.214844 L 91.925781 36.0625 L 0.34375 36.0625 Z M 0.34375 0.214844 " clip-rule="nonzero"/></clipPath><clipPath id="452f417cb8"><path d="M 17.554688 0.214844 L 74.59375 0.214844 C 79.15625 0.214844 83.535156 2.027344 86.761719 5.253906 C 89.988281 8.480469 91.800781 12.859375 91.800781 17.425781 L 91.800781 18.851562 C 91.800781 23.417969 89.988281 27.792969 86.761719 31.023438 C 83.535156 34.25 79.15625 36.0625 74.59375 36.0625 L 17.554688 36.0625 C 12.992188 36.0625 8.613281 34.25 5.386719 31.023438 C 2.15625 27.792969 0.34375 23.417969 0.34375 18.851562 L 0.34375 17.425781 C 0.34375 12.859375 2.15625 8.480469 5.386719 5.253906 C 8.613281 2.027344 12.992188 0.214844 17.554688 0.214844 Z M 17.554688 0.214844 " clip-rule="nonzero"/></clipPath><clipPath id="7d12ecdd14"><rect x="0" width="92" y="0" height="37"/></clipPath><clipPath id="0484f91326"><rect x="0" width="847" y="0" height="192"/></clipPath><clipPath id="ebf086da56"><rect x="0" width="775" y="0" height="100"/></clipPath></defs><g clip-path="url(#d3e39c91f0)"><g clip-path="url(#72be6e99ac)"><g transform="matrix(1, 0, 0, 1, 24, 115)"><g clip-path="url(#6d18f49c46)"><g clip-path="url(#6cd170d778)"><g clip-path="url(#4375405429)"><path fill="#a6cc85" d="M 0.742188 0.671875 L 46.953125 0.671875 L 46.953125 36.519531 L 0.742188 36.519531 Z M 0.742188 0.671875 " fill-opacity="1" fill-rule="nonzero"/></g></g></g></g></g></g><g clip-path="url(#95308520bd)"><g clip-path="url(#c5a2dedf77)"><g transform="matrix(1, 0, 0, 1, 12, 182)"><g clip-path="url(#4d774d1b28)"><g clip-path="url(#1bff15c44a)"><g clip-path="url(#6753070f94)"><path fill="#ffd338" d="M 0.972656 0.214844 L 89.050781 0.214844 L 89.050781 36.0625 L 0.972656 36.0625 Z M 0.972656 0.214844 " fill-opacity="1" fill-rule="nonzero"/></g></g></g></g></g></g><g clip-path="url(#a3a5fc1929)"><g clip-path="url(#2d62aac2f0)"><g transform="matrix(1, 0, 0, 1, 1, 248)"><g clip-path="url(#707e460d6e)"><g clip-path="url(#62520687bf)"><g clip-path="url(#1fdf085ff7)"><path fill="#f93b37" d="M 0.203125 0.753906 L 132.957031 0.753906 L 132.957031 36.605469 L 0.203125 36.605469 Z M 0.203125 0.753906 " fill-opacity="1" fill-rule="nonzero"/></g></g></g></g></g></g><g clip-path="url(#d60d5c074c)"><g clip-path="url(#f0b141b82d)"><g transform="matrix(1, 0, 0, 1, 147, 248)"><g clip-path="url(#8c3ce43003)"><g clip-path="url(#2ca1b6f816)"><g clip-path="url(#3dd74b7473)"><path fill="#f93b37" d="M 47.027344 36.601562 L 0.816406 36.601562 L 0.816406 0.753906 L 47.027344 0.753906 Z M 47.027344 36.601562 " fill-opacity="1" fill-rule="nonzero"/></g></g></g></g></g></g><g clip-path="url(#d02abff6bd)"><g clip-path="url(#7e27d3807f)"><g transform="matrix(1, 0, 0, 1, 84, 115)"><g clip-path="url(#e6ba790215)"><g clip-path="url(#522856a215)"><g clip-path="url(#6a0b5bc2f4)"><path fill="#a6cc85" d="M 133.566406 36.519531 L 0.8125 36.519531 L 0.8125 0.671875 L 133.566406 0.671875 Z M 133.566406 36.519531 " fill-opacity="1" fill-rule="nonzero"/></g></g></g></g></g></g><g clip-path="url(#448533784e)"><g clip-path="url(#668ab7ca91)"><g transform="matrix(1, 0, 0, 1, 114, 182)"><g clip-path="url(#7d12ecdd14)"><g clip-path="url(#6ee01353f2)"><g clip-path="url(#452f417cb8)"><path fill="#ffd338" d="M 0.34375 0.214844 L 91.789062 0.214844 L 91.789062 36.0625 L 0.34375 36.0625 Z M 0.34375 0.214844 " fill-opacity="1" fill-rule="nonzero"/></g></g></g></g></g></g><g transform="matrix(1, 0, 0, 1, 249, 42)"><g clip-path="url(#0484f91326)"><g fill="#140086" fill-opacity="1"><g transform="translate(1.091101, 150.98842)"><g><path d="M 30.8125 -82.6875 C 30.8125 -79.101562 32.335938 -76.316406 35.390625 -74.328125 C 38.441406 -72.347656 43.019531 -70.484375 49.125 -68.734375 C 57.550781 -66.316406 64.742188 -63.601562 70.703125 -60.59375 C 76.660156 -57.59375 81.1875 -53.910156 84.28125 -49.546875 C 87.382812 -45.191406 88.9375 -39.816406 88.9375 -33.421875 C 88.9375 -26.734375 87.335938 -20.75 84.140625 -15.46875 C 80.941406 -10.195312 76.242188 -6.007812 70.046875 -2.90625 C 63.847656 0.195312 56.242188 1.75 47.234375 1.75 C 36.472656 1.75 27.21875 -0.671875 19.46875 -5.515625 C 11.71875 -10.359375 6.148438 -16.851562 2.765625 -25 L 23.109375 -35.453125 C 25.335938 -30.515625 28.609375 -26.640625 32.921875 -23.828125 C 37.234375 -21.023438 42.242188 -19.625 47.953125 -19.625 C 53.085938 -19.625 57.253906 -20.757812 60.453125 -23.03125 C 63.648438 -25.3125 65.25 -28.195312 65.25 -31.6875 C 65.25 -33.914062 64.617188 -35.828125 63.359375 -37.421875 C 62.097656 -39.015625 59.894531 -40.488281 56.75 -41.84375 C 53.601562 -43.207031 49.269531 -44.710938 43.75 -46.359375 C 37.644531 -48.203125 32.265625 -50.210938 27.609375 -52.390625 C 22.960938 -54.566406 19.085938 -57.160156 15.984375 -60.171875 C 13.367188 -62.679688 11.257812 -65.726562 9.65625 -69.3125 C 8.0625 -72.90625 7.265625 -76.878906 7.265625 -81.234375 C 7.265625 -88.015625 9.082031 -93.972656 12.71875 -99.109375 C 16.351562 -104.242188 21.171875 -108.265625 27.171875 -111.171875 C 33.179688 -114.078125 39.769531 -115.53125 46.9375 -115.53125 C 56.4375 -115.53125 64.648438 -113.375 71.578125 -109.0625 C 78.503906 -104.757812 83.613281 -98.726562 86.90625 -90.96875 L 67.4375 -80.359375 C 65.59375 -84.921875 62.753906 -88.382812 58.921875 -90.75 C 55.097656 -93.125 50.765625 -94.3125 45.921875 -94.3125 C 41.171875 -94.3125 37.460938 -93.222656 34.796875 -91.046875 C 32.140625 -88.867188 30.8125 -86.082031 30.8125 -82.6875 Z M 30.8125 -82.6875 "/></g></g></g><g fill="#140086" fill-opacity="1"><g transform="translate(95.840426, 150.98842)"><g><path d="M 32.40625 -34.296875 C 32.40625 -30.035156 33.445312 -26.5 35.53125 -23.6875 C 37.613281 -20.875 41.03125 -19.46875 45.78125 -19.46875 C 50.625 -19.46875 54.160156 -20.945312 56.390625 -23.90625 C 58.617188 -26.863281 59.734375 -30.328125 59.734375 -34.296875 L 59.734375 -77.609375 L 82.40625 -77.609375 L 82.40625 0 L 60.015625 0 L 60.015625 -9.59375 L 59.875 -9.59375 C 57.257812 -5.8125 54.398438 -3.144531 51.296875 -1.59375 C 48.203125 -0.0390625 45.441406 0.875 43.015625 1.15625 C 40.597656 1.445312 39 1.59375 38.21875 1.59375 C 31.820312 1.59375 26.515625 0.164062 22.296875 -2.6875 C 18.085938 -5.539062 14.941406 -9.289062 12.859375 -13.9375 C 10.773438 -18.59375 9.734375 -23.585938 9.734375 -28.921875 L 9.734375 -77.609375 L 32.40625 -77.609375 Z M 32.40625 -34.296875 "/></g></g></g><g fill="#140086" fill-opacity="1"><g transform="translate(188.700562, 150.98842)"><g><path d="M 95.921875 -77.609375 L 152.015625 -77.609375 L 152.015625 0 L 129.203125 0 L 129.203125 -58.28125 L 96.0625 -58.28125 L 96.0625 0 L 73.390625 0 L 73.390625 -58.28125 L 40.40625 -58.28125 L 40.40625 0 L 17.734375 0 L 17.734375 -58.28125 L 3.78125 -58.28125 L 3.78125 -77.609375 L 17.734375 -77.609375 L 17.734375 -85.3125 C 17.734375 -91.707031 18.867188 -97.421875 21.140625 -102.453125 C 23.421875 -107.492188 26.984375 -111.46875 31.828125 -114.375 C 36.671875 -117.28125 42.867188 -118.734375 50.421875 -118.734375 C 51.679688 -118.734375 53.207031 -118.660156 55 -118.515625 C 56.789062 -118.367188 58.800781 -117.910156 61.03125 -117.140625 L 61.03125 -98.53125 C 59.875 -98.914062 58.519531 -99.15625 56.96875 -99.25 C 55.414062 -99.351562 54.445312 -99.40625 54.0625 -99.40625 C 49.800781 -99.40625 46.429688 -98.265625 43.953125 -95.984375 C 41.484375 -93.710938 40.25 -90.300781 40.25 -85.75 L 40.25 -77.609375 L 73.390625 -77.609375 L 73.390625 -85.3125 C 73.390625 -91.707031 74.523438 -97.421875 76.796875 -102.453125 C 79.078125 -107.492188 82.640625 -111.46875 87.484375 -114.375 C 92.328125 -117.28125 98.53125 -118.734375 106.09375 -118.734375 C 107.351562 -118.734375 108.878906 -118.660156 110.671875 -118.515625 C 112.460938 -118.367188 114.472656 -117.910156 116.703125 -117.140625 L 116.703125 -98.53125 C 115.535156 -98.914062 114.175781 -99.15625 112.625 -99.25 C 111.070312 -99.351562 110.101562 -99.40625 109.71875 -99.40625 C 105.457031 -99.40625 102.09375 -98.265625 99.625 -95.984375 C 97.15625 -93.710938 95.921875 -90.300781 95.921875 -85.75 Z M 140.390625 -90.6875 C 136.609375 -90.6875 133.335938 -92.039062 130.578125 -94.75 C 127.816406 -97.46875 126.4375 -100.765625 126.4375 -104.640625 C 126.4375 -108.609375 127.816406 -111.945312 130.578125 -114.65625 C 133.335938 -117.375 136.609375 -118.734375 140.390625 -118.734375 C 144.359375 -118.734375 147.722656 -117.375 150.484375 -114.65625 C 153.242188 -111.945312 154.625 -108.609375 154.625 -104.640625 C 154.625 -100.765625 153.242188 -97.46875 150.484375 -94.75 C 147.722656 -92.039062 144.359375 -90.6875 140.390625 -90.6875 Z M 140.390625 -90.6875 "/></g></g></g><g fill="#140086" fill-opacity="1"><g transform="translate(351.169489, 150.98842)"><g><path d="M 47.515625 1.75 C 39.378906 1.75 32.160156 -0.015625 25.859375 -3.546875 C 19.566406 -7.085938 14.648438 -11.910156 11.109375 -18.015625 C 7.578125 -24.117188 5.8125 -31 5.8125 -38.65625 C 5.8125 -44.375 6.898438 -49.703125 9.078125 -54.640625 C 11.265625 -59.585938 14.269531 -63.898438 18.09375 -67.578125 C 21.914062 -71.253906 26.347656 -74.132812 31.390625 -76.21875 C 36.429688 -78.300781 41.859375 -79.34375 47.671875 -79.34375 C 53.285156 -79.34375 58.539062 -78.445312 63.4375 -76.65625 C 68.332031 -74.863281 72.617188 -72.175781 76.296875 -68.59375 C 79.972656 -65.007812 82.640625 -60.601562 84.296875 -55.375 L 64.375 -47.09375 C 63.113281 -50.09375 61.222656 -52.753906 58.703125 -55.078125 C 56.191406 -57.398438 52.515625 -58.5625 47.671875 -58.5625 C 42.628906 -58.5625 38.265625 -56.84375 34.578125 -53.40625 C 30.898438 -49.96875 29.0625 -45.148438 29.0625 -38.953125 C 29.0625 -33.234375 30.753906 -28.507812 34.140625 -24.78125 C 37.535156 -21.050781 42.046875 -19.1875 47.671875 -19.1875 C 52.515625 -19.1875 56.265625 -20.367188 58.921875 -22.734375 C 61.585938 -25.109375 63.550781 -27.753906 64.8125 -30.671875 L 84.875 -22.375 C 81.769531 -14.144531 76.847656 -8.066406 70.109375 -4.140625 C 63.378906 -0.210938 55.847656 1.75 47.515625 1.75 Z M 47.515625 1.75 "/></g></g></g><g fill="#140086" fill-opacity="1"><g transform="translate(440.541938, 150.98842)"><g><path d="M 7.703125 -104.640625 C 7.703125 -108.609375 9.082031 -111.945312 11.84375 -114.65625 C 14.601562 -117.375 17.875 -118.734375 21.65625 -118.734375 C 25.625 -118.734375 28.988281 -117.375 31.75 -114.65625 C 34.507812 -111.945312 35.890625 -108.609375 35.890625 -104.640625 C 35.890625 -100.765625 34.507812 -97.46875 31.75 -94.75 C 28.988281 -92.039062 25.625 -90.6875 21.65625 -90.6875 C 17.875 -90.6875 14.601562 -92.039062 11.84375 -94.75 C 9.082031 -97.46875 7.703125 -100.765625 7.703125 -104.640625 Z M 10.46875 0 L 33.28125 0 L 33.28125 -77.609375 L 10.46875 -77.609375 Z M 10.46875 0 "/></g></g></g><g fill="#140086" fill-opacity="1"><g transform="translate(484.283568, 150.98842)"><g><path d="M 28.78125 -32.546875 C 29.550781 -27.703125 31.753906 -23.945312 35.390625 -21.28125 C 39.023438 -18.625 43.210938 -17.296875 47.953125 -17.296875 C 51.253906 -17.296875 54.523438 -18.117188 57.765625 -19.765625 C 61.015625 -21.410156 63.507812 -23.6875 65.25 -26.59375 L 81.671875 -15.84375 C 75.179688 -4.113281 64.039062 1.75 48.25 1.75 C 40.40625 1.75 33.257812 0.03125 26.8125 -3.40625 C 20.375 -6.851562 15.238281 -11.628906 11.40625 -17.734375 C 7.582031 -23.835938 5.671875 -30.910156 5.671875 -38.953125 C 5.671875 -44.566406 6.757812 -49.820312 8.9375 -54.71875 C 11.113281 -59.613281 14.09375 -63.925781 17.875 -67.65625 C 21.65625 -71.382812 26.015625 -74.289062 30.953125 -76.375 C 35.890625 -78.457031 41.171875 -79.5 46.796875 -79.5 C 54.546875 -79.5 61.300781 -77.847656 67.0625 -74.546875 C 72.832031 -71.253906 77.335938 -66.703125 80.578125 -60.890625 C 83.828125 -55.078125 85.453125 -48.34375 85.453125 -40.6875 C 85.453125 -39.332031 85.453125 -37.976562 85.453125 -36.625 C 85.453125 -35.269531 85.351562 -33.910156 85.15625 -32.546875 Z M 62.78125 -47.515625 C 62.6875 -49.453125 62.03125 -51.460938 60.8125 -53.546875 C 59.601562 -55.628906 57.8125 -57.394531 55.4375 -58.84375 C 53.0625 -60.300781 49.988281 -61.03125 46.21875 -61.03125 C 42.820312 -61.03125 39.910156 -60.253906 37.484375 -58.703125 C 35.066406 -57.160156 33.179688 -55.347656 31.828125 -53.265625 C 30.472656 -51.179688 29.648438 -49.265625 29.359375 -47.515625 Z M 62.78125 -47.515625 "/></g></g></g><g fill="#140086" fill-opacity="1"><g transform="translate(575.399859, 150.98842)"><g><path d="M 60.609375 -43.015625 C 60.609375 -47.378906 59.515625 -50.988281 57.328125 -53.84375 C 55.148438 -56.695312 51.738281 -58.125 47.09375 -58.125 C 42.34375 -58.125 38.828125 -56.597656 36.546875 -53.546875 C 34.273438 -50.492188 33.140625 -46.984375 33.140625 -43.015625 L 33.140625 0 L 10.46875 0 L 10.46875 -77.609375 L 32.984375 -77.609375 L 32.984375 -67.4375 L 33.140625 -67.4375 C 34.585938 -70.050781 36.398438 -72.128906 38.578125 -73.671875 C 40.765625 -75.222656 42.972656 -76.382812 45.203125 -77.15625 C 47.429688 -77.9375 49.441406 -78.445312 51.234375 -78.6875 C 53.023438 -78.9375 54.304688 -79.0625 55.078125 -79.0625 C 61.671875 -79.0625 67.023438 -77.609375 71.140625 -74.703125 C 75.253906 -71.796875 78.28125 -67.988281 80.21875 -63.28125 C 82.15625 -58.582031 83.125 -53.570312 83.125 -48.25 L 83.125 0 L 60.609375 0 Z M 60.609375 -43.015625 "/></g></g></g><g fill="#140086" fill-opacity="1"><g transform="translate(668.259995, 150.98842)"><g><path d="M 47.515625 1.75 C 39.378906 1.75 32.160156 -0.015625 25.859375 -3.546875 C 19.566406 -7.085938 14.648438 -11.910156 11.109375 -18.015625 C 7.578125 -24.117188 5.8125 -31 5.8125 -38.65625 C 5.8125 -44.375 6.898438 -49.703125 9.078125 -54.640625 C 11.265625 -59.585938 14.269531 -63.898438 18.09375 -67.578125 C 21.914062 -71.253906 26.347656 -74.132812 31.390625 -76.21875 C 36.429688 -78.300781 41.859375 -79.34375 47.671875 -79.34375 C 53.285156 -79.34375 58.539062 -78.445312 63.4375 -76.65625 C 68.332031 -74.863281 72.617188 -72.175781 76.296875 -68.59375 C 79.972656 -65.007812 82.640625 -60.601562 84.296875 -55.375 L 64.375 -47.09375 C 63.113281 -50.09375 61.222656 -52.753906 58.703125 -55.078125 C 56.191406 -57.398438 52.515625 -58.5625 47.671875 -58.5625 C 42.628906 -58.5625 38.265625 -56.84375 34.578125 -53.40625 C 30.898438 -49.96875 29.0625 -45.148438 29.0625 -38.953125 C 29.0625 -33.234375 30.753906 -28.507812 34.140625 -24.78125 C 37.535156 -21.050781 42.046875 -19.1875 47.671875 -19.1875 C 52.515625 -19.1875 56.265625 -20.367188 58.921875 -22.734375 C 61.585938 -25.109375 63.550781 -27.753906 64.8125 -30.671875 L 84.875 -22.375 C 81.769531 -14.144531 76.847656 -8.066406 70.109375 -4.140625 C 63.378906 -0.210938 55.847656 1.75 47.515625 1.75 Z M 47.515625 1.75 "/></g></g></g><g fill="#140086" fill-opacity="1"><g transform="translate(754.435088, 150.98842)"><g><path d="M 34.59375 -8.28125 L 1.890625 -77.609375 L 26.890625 -77.609375 L 46.21875 -33.28125 L 63.515625 -77.609375 L 86.90625 -77.609375 L 39.8125 38.21875 L 15.546875 38.21875 Z M 34.59375 -8.28125 "/></g></g></g><g fill="#140086" fill-opacity="1"><g transform="translate(843.262605, 150.98842)"><g/></g></g></g></g><g transform="matrix(1, 0, 0, 1, 239, 206)"><g clip-path="url(#ebf086da56)"><g fill="#140086" fill-opacity="1"><g transform="translate(0.870695, 78.817785)"><g><path d="M 5.015625 -52.6875 C 5.015625 -53.894531 5.425781 -54.910156 6.25 -55.734375 C 7.070312 -56.554688 8.066406 -56.96875 9.234375 -56.96875 C 10.441406 -56.96875 11.457031 -56.554688 12.28125 -55.734375 C 13.101562 -54.910156 13.515625 -53.894531 13.515625 -52.6875 C 13.515625 -51.519531 13.101562 -50.523438 12.28125 -49.703125 C 11.457031 -48.878906 10.441406 -48.46875 9.234375 -48.46875 C 8.066406 -48.46875 7.070312 -48.878906 6.25 -49.703125 C 5.425781 -50.523438 5.015625 -51.519531 5.015625 -52.6875 Z M 12.140625 0 L 6.390625 0 L 6.390625 -38.8125 L 12.140625 -38.8125 Z M 12.140625 0 "/></g></g></g><g fill="#140086" fill-opacity="1"><g transform="translate(20.998134, 78.817785)"><g><path d="M 34.375 0 L 34.375 -22.59375 C 34.375 -26.039062 33.476562 -28.863281 31.6875 -31.0625 C 29.894531 -33.269531 27.207031 -34.375 23.625 -34.375 C 21.394531 -34.375 19.40625 -33.828125 17.65625 -32.734375 C 15.914062 -31.648438 14.546875 -30.1875 13.546875 -28.34375 C 12.554688 -26.5 12.0625 -24.414062 12.0625 -22.09375 L 12.0625 0 L 6.390625 0 L 6.390625 -38.8125 L 11.984375 -38.8125 L 11.984375 -31.6875 C 15.035156 -36.914062 19.492188 -39.53125 25.359375 -39.53125 C 28.554688 -39.53125 31.242188 -38.863281 33.421875 -37.53125 C 35.609375 -36.195312 37.257812 -34.367188 38.375 -32.046875 C 39.488281 -29.722656 40.046875 -27.035156 40.046875 -23.984375 L 40.046875 0 Z M 34.375 0 "/></g></g></g><g fill="#140086" fill-opacity="1"><g transform="translate(68.518767, 78.817785)"><g/></g></g><g fill="#140086" fill-opacity="1"><g transform="translate(90.405645, 78.817785)"><g><path d="M 50.875 -15.703125 C 50.875 -12.796875 50.289062 -10.347656 49.125 -8.359375 C 47.957031 -6.367188 46.40625 -4.753906 44.46875 -3.515625 C 42.53125 -2.285156 40.363281 -1.390625 37.96875 -0.828125 C 35.570312 -0.273438 33.113281 0 30.59375 0 L 6.609375 0 L 6.609375 -56.90625 L 30.234375 -56.90625 C 33.285156 -56.90625 36.203125 -56.359375 38.984375 -55.265625 C 41.773438 -54.171875 44.039062 -52.507812 45.78125 -50.28125 C 47.53125 -48.0625 48.40625 -45.253906 48.40625 -41.859375 C 48.40625 -39.046875 47.6875 -36.632812 46.25 -34.625 C 44.820312 -32.613281 42.875 -30.976562 40.40625 -29.71875 L 40.40625 -29.578125 C 43.800781 -28.316406 46.394531 -26.628906 48.1875 -24.515625 C 49.976562 -22.410156 50.875 -19.472656 50.875 -15.703125 Z M 36.84375 -40.046875 C 36.84375 -41.640625 36.429688 -42.875 35.609375 -43.75 C 34.785156 -44.625 33.742188 -45.226562 32.484375 -45.5625 C 31.222656 -45.90625 29.9375 -46.078125 28.625 -46.078125 L 18.09375 -46.078125 L 18.09375 -33.796875 L 27.828125 -33.796875 C 29.234375 -33.796875 30.625 -33.953125 32 -34.265625 C 33.382812 -34.578125 34.535156 -35.191406 35.453125 -36.109375 C 36.378906 -37.035156 36.84375 -38.347656 36.84375 -40.046875 Z M 39.390625 -17.21875 C 39.390625 -19.007812 38.914062 -20.351562 37.96875 -21.25 C 37.019531 -22.144531 35.832031 -22.765625 34.40625 -23.109375 C 32.976562 -23.453125 31.539062 -23.625 30.09375 -23.625 L 18.09375 -23.625 L 18.09375 -10.90625 L 30.453125 -10.90625 C 31.859375 -10.90625 33.25 -11.070312 34.625 -11.40625 C 36.007812 -11.75 37.148438 -12.378906 38.046875 -13.296875 C 38.941406 -14.222656 39.390625 -15.53125 39.390625 -17.21875 Z M 39.390625 -17.21875 "/></g></g></g><g fill="#140086" fill-opacity="1"><g transform="translate(146.064315, 78.817785)"><g><path d="M 16.203125 -17.15625 C 16.203125 -15.019531 16.722656 -13.25 17.765625 -11.84375 C 18.804688 -10.4375 20.515625 -9.734375 22.890625 -9.734375 C 25.316406 -9.734375 27.085938 -10.472656 28.203125 -11.953125 C 29.316406 -13.429688 29.875 -15.164062 29.875 -17.15625 L 29.875 -38.8125 L 41.203125 -38.8125 L 41.203125 0 L 30.015625 0 L 30.015625 -4.796875 L 29.9375 -4.796875 C 28.632812 -2.910156 27.207031 -1.578125 25.65625 -0.796875 C 24.101562 -0.0234375 22.71875 0.429688 21.5 0.578125 C 20.289062 0.722656 19.492188 0.796875 19.109375 0.796875 C 15.910156 0.796875 13.257812 0.0820312 11.15625 -1.34375 C 9.050781 -2.769531 7.476562 -4.644531 6.4375 -6.96875 C 5.394531 -9.300781 4.875 -11.800781 4.875 -14.46875 L 4.875 -38.8125 L 16.203125 -38.8125 Z M 16.203125 -17.15625 "/></g></g></g><g fill="#140086" fill-opacity="1"><g transform="translate(194.093555, 78.817785)"><g><path d="M 34.453125 -11.703125 C 34.453125 -8.066406 33.09375 -5.0625 30.375 -2.6875 C 27.664062 -0.3125 23.863281 0.875 18.96875 0.875 C 14.414062 0.875 10.804688 0.0507812 8.140625 -1.59375 C 5.472656 -3.238281 3.4375 -5.394531 2.03125 -8.0625 L 10.390625 -13.015625 C 11.066406 -11.648438 12.15625 -10.519531 13.65625 -9.625 C 15.164062 -8.726562 16.984375 -8.28125 19.109375 -8.28125 C 20.566406 -8.28125 21.71875 -8.570312 22.5625 -9.15625 C 23.414062 -9.738281 23.84375 -10.394531 23.84375 -11.125 C 23.84375 -11.800781 23.488281 -12.453125 22.78125 -13.078125 C 22.082031 -13.710938 20.375 -14.316406 17.65625 -14.890625 C 15.28125 -15.429688 13.039062 -16.195312 10.9375 -17.1875 C 8.832031 -18.175781 7.125 -19.492188 5.8125 -21.140625 C 4.507812 -22.796875 3.859375 -24.90625 3.859375 -27.46875 C 3.859375 -29.9375 4.554688 -32.09375 5.953125 -33.9375 C 7.359375 -35.78125 9.1875 -37.207031 11.4375 -38.21875 C 13.695312 -39.238281 16.132812 -39.75 18.75 -39.75 C 22.476562 -39.75 25.601562 -39.007812 28.125 -37.53125 C 30.644531 -36.050781 32.507812 -34.175781 33.71875 -31.90625 L 25.515625 -27.03125 C 24.878906 -28.144531 23.988281 -29.039062 22.84375 -29.71875 C 21.707031 -30.394531 20.242188 -30.734375 18.453125 -30.734375 C 17.242188 -30.734375 16.265625 -30.453125 15.515625 -29.890625 C 14.765625 -29.335938 14.390625 -28.675781 14.390625 -27.90625 C 14.390625 -27.132812 14.75 -26.441406 15.46875 -25.828125 C 16.195312 -25.222656 17.53125 -24.726562 19.46875 -24.34375 C 24.125 -23.375 27.785156 -21.90625 30.453125 -19.9375 C 33.117188 -17.976562 34.453125 -15.234375 34.453125 -11.703125 Z M 34.453125 -11.703125 "/></g></g></g><g fill="#140086" fill-opacity="1"><g transform="translate(232.894868, 78.817785)"><g><path d="M 3.859375 -52.328125 C 3.859375 -54.304688 4.546875 -55.972656 5.921875 -57.328125 C 7.304688 -58.691406 8.941406 -59.375 10.828125 -59.375 C 12.816406 -59.375 14.5 -58.691406 15.875 -57.328125 C 17.257812 -55.972656 17.953125 -54.304688 17.953125 -52.328125 C 17.953125 -50.390625 17.257812 -48.738281 15.875 -47.375 C 14.5 -46.019531 12.816406 -45.34375 10.828125 -45.34375 C 8.941406 -45.34375 7.304688 -46.019531 5.921875 -47.375 C 4.546875 -48.738281 3.859375 -50.390625 3.859375 -52.328125 Z M 5.234375 0 L 16.640625 0 L 16.640625 -38.8125 L 5.234375 -38.8125 Z M 5.234375 0 "/></g></g></g><g fill="#140086" fill-opacity="1"><g transform="translate(256.3647, 78.817785)"><g><path d="M 30.296875 -21.515625 C 30.296875 -23.691406 29.75 -25.492188 28.65625 -26.921875 C 27.570312 -28.347656 25.867188 -29.0625 23.546875 -29.0625 C 21.171875 -29.0625 19.410156 -28.296875 18.265625 -26.765625 C 17.128906 -25.242188 16.5625 -23.492188 16.5625 -21.515625 L 16.5625 0 L 5.234375 0 L 5.234375 -38.8125 L 16.5 -38.8125 L 16.5 -33.71875 L 16.5625 -33.71875 C 17.289062 -35.03125 18.195312 -36.070312 19.28125 -36.84375 C 20.375 -37.613281 21.476562 -38.191406 22.59375 -38.578125 C 23.707031 -38.972656 24.710938 -39.226562 25.609375 -39.34375 C 26.515625 -39.46875 27.160156 -39.53125 27.546875 -39.53125 C 30.835938 -39.53125 33.507812 -38.800781 35.5625 -37.34375 C 37.625 -35.894531 39.140625 -33.992188 40.109375 -31.640625 C 41.078125 -29.296875 41.5625 -26.789062 41.5625 -24.125 L 41.5625 0 L 30.296875 0 Z M 30.296875 -21.515625 "/></g></g></g><g fill="#140086" fill-opacity="1"><g transform="translate(304.39394, 78.817785)"><g><path d="M 14.390625 -16.28125 C 14.773438 -13.851562 15.875 -11.972656 17.6875 -10.640625 C 19.507812 -9.304688 21.609375 -8.640625 23.984375 -8.640625 C 25.628906 -8.640625 27.265625 -9.050781 28.890625 -9.875 C 30.515625 -10.707031 31.757812 -11.847656 32.625 -13.296875 L 40.84375 -7.921875 C 37.59375 -2.054688 32.019531 0.875 24.125 0.875 C 20.195312 0.875 16.625 0.015625 13.40625 -1.703125 C 10.1875 -3.421875 7.617188 -5.804688 5.703125 -8.859375 C 3.785156 -11.910156 2.828125 -15.445312 2.828125 -19.46875 C 2.828125 -22.28125 3.375 -24.910156 4.46875 -27.359375 C 5.5625 -29.804688 7.050781 -31.960938 8.9375 -33.828125 C 10.820312 -35.691406 13 -37.144531 15.46875 -38.1875 C 17.945312 -39.226562 20.59375 -39.75 23.40625 -39.75 C 27.28125 -39.75 30.65625 -38.925781 33.53125 -37.28125 C 36.414062 -35.632812 38.671875 -33.359375 40.296875 -30.453125 C 41.921875 -27.546875 42.734375 -24.175781 42.734375 -20.34375 C 42.734375 -19.664062 42.734375 -18.988281 42.734375 -18.3125 C 42.734375 -17.632812 42.679688 -16.957031 42.578125 -16.28125 Z M 31.390625 -23.765625 C 31.347656 -24.734375 31.019531 -25.738281 30.40625 -26.78125 C 29.800781 -27.820312 28.90625 -28.703125 27.71875 -29.421875 C 26.53125 -30.148438 24.992188 -30.515625 23.109375 -30.515625 C 21.410156 -30.515625 19.957031 -30.128906 18.75 -29.359375 C 17.539062 -28.585938 16.59375 -27.679688 15.90625 -26.640625 C 15.226562 -25.597656 14.820312 -24.640625 14.6875 -23.765625 Z M 31.390625 -23.765625 "/></g></g></g><g fill="#140086" fill-opacity="1"><g transform="translate(351.551259, 78.817785)"><g><path d="M 34.453125 -11.703125 C 34.453125 -8.066406 33.09375 -5.0625 30.375 -2.6875 C 27.664062 -0.3125 23.863281 0.875 18.96875 0.875 C 14.414062 0.875 10.804688 0.0507812 8.140625 -1.59375 C 5.472656 -3.238281 3.4375 -5.394531 2.03125 -8.0625 L 10.390625 -13.015625 C 11.066406 -11.648438 12.15625 -10.519531 13.65625 -9.625 C 15.164062 -8.726562 16.984375 -8.28125 19.109375 -8.28125 C 20.566406 -8.28125 21.71875 -8.570312 22.5625 -9.15625 C 23.414062 -9.738281 23.84375 -10.394531 23.84375 -11.125 C 23.84375 -11.800781 23.488281 -12.453125 22.78125 -13.078125 C 22.082031 -13.710938 20.375 -14.316406 17.65625 -14.890625 C 15.28125 -15.429688 13.039062 -16.195312 10.9375 -17.1875 C 8.832031 -18.175781 7.125 -19.492188 5.8125 -21.140625 C 4.507812 -22.796875 3.859375 -24.90625 3.859375 -27.46875 C 3.859375 -29.9375 4.554688 -32.09375 5.953125 -33.9375 C 7.359375 -35.78125 9.1875 -37.207031 11.4375 -38.21875 C 13.695312 -39.238281 16.132812 -39.75 18.75 -39.75 C 22.476562 -39.75 25.601562 -39.007812 28.125 -37.53125 C 30.644531 -36.050781 32.507812 -34.175781 33.71875 -31.90625 L 25.515625 -27.03125 C 24.878906 -28.144531 23.988281 -29.039062 22.84375 -29.71875 C 21.707031 -30.394531 20.242188 -30.734375 18.453125 -30.734375 C 17.242188 -30.734375 16.265625 -30.453125 15.515625 -29.890625 C 14.765625 -29.335938 14.390625 -28.675781 14.390625 -27.90625 C 14.390625 -27.132812 14.75 -26.441406 15.46875 -25.828125 C 16.195312 -25.222656 17.53125 -24.726562 19.46875 -24.34375 C 24.125 -23.375 27.785156 -21.90625 30.453125 -19.9375 C 33.117188 -17.976562 34.453125 -15.234375 34.453125 -11.703125 Z M 34.453125 -11.703125 "/></g></g></g><g fill="#140086" fill-opacity="1"><g transform="translate(390.352572, 78.817785)"><g><path d="M 34.453125 -11.703125 C 34.453125 -8.066406 33.09375 -5.0625 30.375 -2.6875 C 27.664062 -0.3125 23.863281 0.875 18.96875 0.875 C 14.414062 0.875 10.804688 0.0507812 8.140625 -1.59375 C 5.472656 -3.238281 3.4375 -5.394531 2.03125 -8.0625 L 10.390625 -13.015625 C 11.066406 -11.648438 12.15625 -10.519531 13.65625 -9.625 C 15.164062 -8.726562 16.984375 -8.28125 19.109375 -8.28125 C 20.566406 -8.28125 21.71875 -8.570312 22.5625 -9.15625 C 23.414062 -9.738281 23.84375 -10.394531 23.84375 -11.125 C 23.84375 -11.800781 23.488281 -12.453125 22.78125 -13.078125 C 22.082031 -13.710938 20.375 -14.316406 17.65625 -14.890625 C 15.28125 -15.429688 13.039062 -16.195312 10.9375 -17.1875 C 8.832031 -18.175781 7.125 -19.492188 5.8125 -21.140625 C 4.507812 -22.796875 3.859375 -24.90625 3.859375 -27.46875 C 3.859375 -29.9375 4.554688 -32.09375 5.953125 -33.9375 C 7.359375 -35.78125 9.1875 -37.207031 11.4375 -38.21875 C 13.695312 -39.238281 16.132812 -39.75 18.75 -39.75 C 22.476562 -39.75 25.601562 -39.007812 28.125 -37.53125 C 30.644531 -36.050781 32.507812 -34.175781 33.71875 -31.90625 L 25.515625 -27.03125 C 24.878906 -28.144531 23.988281 -29.039062 22.84375 -29.71875 C 21.707031 -30.394531 20.242188 -30.734375 18.453125 -30.734375 C 17.242188 -30.734375 16.265625 -30.453125 15.515625 -29.890625 C 14.765625 -29.335938 14.390625 -28.675781 14.390625 -27.90625 C 14.390625 -27.132812 14.75 -26.441406 15.46875 -25.828125 C 16.195312 -25.222656 17.53125 -24.726562 19.46875 -24.34375 C 24.125 -23.375 27.785156 -21.90625 30.453125 -19.9375 C 33.117188 -17.976562 34.453125 -15.234375 34.453125 -11.703125 Z M 34.453125 -11.703125 "/></g></g></g><g fill="#140086" fill-opacity="1"><g transform="translate(429.169272, 78.817785)"><g/></g></g><g fill="#140086" fill-opacity="1"><g transform="translate(451.040607, 78.817785)"><g><path d="M 54.28125 0 L 47.890625 0 L 13.8125 -48.46875 L 13.8125 0 L 7.921875 0 L 7.921875 -56.90625 L 14.828125 -56.90625 L 48.40625 -9.375 L 48.40625 -56.90625 L 54.28125 -56.90625 Z M 54.28125 0 "/></g></g></g><g fill="#140086" fill-opacity="1"><g transform="translate(514.837265, 78.817785)"><g><path d="M 40.703125 -17.65625 L 9.296875 -17.65625 C 9.441406 -15.132812 10.144531 -12.867188 11.40625 -10.859375 C 12.664062 -8.847656 14.3125 -7.257812 16.34375 -6.09375 C 18.382812 -4.9375 20.664062 -4.359375 23.1875 -4.359375 C 26.039062 -4.359375 28.53125 -5.097656 30.65625 -6.578125 C 32.789062 -8.054688 34.394531 -9.910156 35.46875 -12.140625 L 39.671875 -9.375 C 38.023438 -6.125 35.738281 -3.640625 32.8125 -1.921875 C 29.882812 -0.203125 26.695312 0.65625 23.25 0.65625 C 19.476562 0.65625 16.113281 -0.238281 13.15625 -2.03125 C 10.195312 -3.820312 7.859375 -6.242188 6.140625 -9.296875 C 4.421875 -12.347656 3.5625 -15.738281 3.5625 -19.46875 C 3.5625 -22.09375 4.03125 -24.601562 4.96875 -27 C 5.914062 -29.394531 7.238281 -31.523438 8.9375 -33.390625 C 10.632812 -35.253906 12.632812 -36.726562 14.9375 -37.8125 C 17.238281 -38.90625 19.742188 -39.453125 22.453125 -39.453125 C 26.472656 -39.453125 29.835938 -38.582031 32.546875 -36.84375 C 35.265625 -35.101562 37.3125 -32.726562 38.6875 -29.71875 C 40.070312 -26.71875 40.765625 -23.328125 40.765625 -19.546875 C 40.765625 -19.210938 40.765625 -18.882812 40.765625 -18.5625 C 40.765625 -18.25 40.742188 -17.945312 40.703125 -17.65625 Z M 9.375 -22.453125 L 35.03125 -22.453125 C 34.6875 -25.992188 33.4375 -28.890625 31.28125 -31.140625 C 29.125 -33.390625 26.179688 -34.515625 22.453125 -34.515625 C 20.222656 -34.515625 18.175781 -33.957031 16.3125 -32.84375 C 14.445312 -31.726562 12.910156 -30.257812 11.703125 -28.4375 C 10.492188 -26.625 9.71875 -24.628906 9.375 -22.453125 Z M 9.375 -22.453125 "/></g></g></g><g fill="#140086" fill-opacity="1"><g transform="translate(559.814701, 78.817785)"><g><path d="M 19.984375 0.296875 C 17.171875 0.296875 14.960938 -0.175781 13.359375 -1.125 C 11.765625 -2.070312 10.640625 -3.316406 9.984375 -4.859375 C 9.335938 -6.410156 9.015625 -8.132812 9.015625 -10.03125 L 9.015625 -33.796875 L 1.8125 -33.796875 L 1.8125 -38.8125 L 9.015625 -38.8125 L 9.015625 -50 L 14.609375 -50 L 14.609375 -38.8125 L 24.421875 -38.8125 L 24.421875 -33.796875 L 14.609375 -33.796875 L 14.609375 -10.171875 C 14.609375 -6.535156 16.710938 -4.71875 20.921875 -4.71875 C 21.554688 -4.71875 22.1875 -4.742188 22.8125 -4.796875 C 23.445312 -4.847656 23.984375 -4.921875 24.421875 -5.015625 L 24.421875 -0.296875 C 23.835938 -0.0976562 23.082031 0.046875 22.15625 0.140625 C 21.238281 0.242188 20.515625 0.296875 19.984375 0.296875 Z M 19.984375 0.296875 "/></g></g></g><g fill="#140086" fill-opacity="1"><g transform="translate(589.024774, 78.817785)"><g><path d="M 1.8125 -38.8125 L 7.84375 -38.8125 L 18.015625 -6.609375 L 18.09375 -6.609375 L 28.625 -38.8125 L 34.296875 -38.8125 L 44.90625 -6.546875 L 44.984375 -6.546875 L 55.234375 -38.8125 L 61.109375 -38.8125 L 48.03125 0 L 41.71875 0 L 31.46875 -31.546875 L 31.390625 -31.546875 L 21.078125 0 L 14.828125 0 Z M 1.8125 -38.8125 "/></g></g></g><g fill="#140086" fill-opacity="1"><g transform="translate(652.748707, 78.817785)"><g><path d="M 23.546875 0.65625 C 19.765625 0.65625 16.367188 -0.238281 13.359375 -2.03125 C 10.359375 -3.820312 7.972656 -6.21875 6.203125 -9.21875 C 4.441406 -12.226562 3.5625 -15.578125 3.5625 -19.265625 C 3.5625 -23.085938 4.441406 -26.523438 6.203125 -29.578125 C 7.972656 -32.628906 10.375 -35.035156 13.40625 -36.796875 C 16.4375 -38.566406 19.863281 -39.453125 23.6875 -39.453125 C 27.414062 -39.453125 30.796875 -38.566406 33.828125 -36.796875 C 36.859375 -35.035156 39.253906 -32.648438 41.015625 -29.640625 C 42.785156 -26.640625 43.671875 -23.273438 43.671875 -19.546875 C 43.671875 -15.722656 42.785156 -12.285156 41.015625 -9.234375 C 39.253906 -6.179688 36.847656 -3.769531 33.796875 -2 C 30.742188 -0.226562 27.328125 0.65625 23.546875 0.65625 Z M 23.6875 -4.359375 C 26.445312 -4.359375 28.894531 -5.035156 31.03125 -6.390625 C 33.164062 -7.753906 34.835938 -9.570312 36.046875 -11.84375 C 37.253906 -14.125 37.859375 -16.597656 37.859375 -19.265625 C 37.859375 -21.972656 37.253906 -24.488281 36.046875 -26.8125 C 34.835938 -29.132812 33.15625 -31 31 -32.40625 C 28.84375 -33.8125 26.359375 -34.515625 23.546875 -34.515625 C 20.734375 -34.515625 18.257812 -33.835938 16.125 -32.484375 C 14 -31.128906 12.34375 -29.3125 11.15625 -27.03125 C 9.96875 -24.757812 9.375 -22.265625 9.375 -19.546875 C 9.375 -16.835938 9.976562 -14.332031 11.1875 -12.03125 C 12.40625 -9.726562 14.085938 -7.875 16.234375 -6.46875 C 18.390625 -5.0625 20.875 -4.359375 23.6875 -4.359375 Z M 23.6875 -4.359375 "/></g></g></g><g fill="#140086" fill-opacity="1"><g transform="translate(701.577247, 78.817785)"><g><path d="M 11.984375 -38.8125 L 11.984375 -31.109375 C 13.441406 -34.109375 15.332031 -36.238281 17.65625 -37.5 C 19.976562 -38.757812 22.253906 -39.390625 24.484375 -39.390625 C 24.679688 -39.390625 25 -39.390625 25.4375 -39.390625 C 25.875 -39.390625 26.1875 -39.363281 26.375 -39.3125 L 26.375 -33.28125 C 26.039062 -33.332031 25.691406 -33.367188 25.328125 -33.390625 C 24.960938 -33.410156 24.585938 -33.421875 24.203125 -33.421875 C 21.148438 -33.421875 18.738281 -32.691406 16.96875 -31.234375 C 15.195312 -29.785156 13.9375 -27.957031 13.1875 -25.75 C 12.4375 -23.550781 12.0625 -21.289062 12.0625 -18.96875 L 12.0625 0 L 6.390625 0 L 6.390625 -38.8125 Z M 11.984375 -38.8125 "/></g></g></g><g fill="#140086" fill-opacity="1"><g transform="translate(730.78732, 78.817785)"><g><path d="M 6.390625 0 L 6.390625 -59.234375 L 12.0625 -59.234375 L 12.0625 -23.03125 L 30.515625 -38.8125 L 38.59375 -38.8125 L 18.171875 -21.359375 L 39.53125 0 L 31.609375 0 L 12.28125 -19.40625 L 12.0625 -19.40625 L 12.0625 0 Z M 6.390625 0 "/></g></g></g></g></g></svg>