<svg width="76" height="30" viewBox="0 0 76 30" fill="none" xmlns="http://www.w3.org/2000/svg">
<g clip-path="url(#clip0_452_209)">
<path d="M20.2103 9.89016C19.5303 9.89016 18.9203 9.76016 18.3903 9.51016C17.8503 9.26016 17.4203 8.94016 17.0803 8.54016L17.8103 7.93016C18.1203 8.24016 18.4803 8.49016 18.8903 8.66016C19.3003 8.84016 19.7403 8.92016 20.2203 8.92016C20.8103 8.92016 21.2703 8.80016 21.5903 8.55016C21.9103 8.31016 22.0803 7.99016 22.0803 7.61016C22.0803 7.27016 21.9703 6.99016 21.7603 6.74016C21.5403 6.50016 21.2103 6.28016 20.7503 6.10016L19.0103 5.39016C18.3103 5.10016 17.8103 4.76016 17.5003 4.36016C17.1903 3.96016 17.0303 3.49016 17.0303 2.95016C17.0303 2.61016 17.1003 2.31016 17.2403 2.03016C17.3803 1.75016 17.5803 1.51016 17.8303 1.30016C18.0803 1.09016 18.3903 0.940156 18.7503 0.830156C19.1103 0.720156 19.5003 0.660156 19.9403 0.660156C20.4203 0.660156 20.8503 0.740156 21.2203 0.890156C21.5903 1.04016 21.9103 1.24016 22.1603 1.48016C22.4203 1.72016 22.6103 2.00016 22.7403 2.32016C22.8703 2.64016 22.9403 2.96016 22.9403 3.29016H21.9703C21.9703 3.11016 21.9303 2.93016 21.8503 2.73016C21.7703 2.53016 21.6503 2.35016 21.4803 2.18016C21.3103 2.01016 21.1103 1.87016 20.8503 1.76016C20.5903 1.65016 20.2903 1.59016 19.9403 1.59016C19.3603 1.59016 18.9103 1.72016 18.5703 1.97016C18.2303 2.22016 18.0603 2.55016 18.0603 2.95016C18.0603 3.29016 18.1603 3.57016 18.3503 3.80016C18.5503 4.03016 18.8703 4.23016 19.3203 4.42016L21.1003 5.16016C21.8003 5.46016 22.3203 5.81016 22.6403 6.21016C22.9603 6.61016 23.1203 7.07016 23.1203 7.61016C23.1203 7.99016 23.0403 8.32016 22.8903 8.60016C22.7303 8.88016 22.5203 9.12016 22.2603 9.31016C22.0003 9.50016 21.6903 9.64016 21.3403 9.74016C20.9903 9.84016 20.6203 9.88016 20.2203 9.88016L20.2103 9.89016Z" fill="white"/>
<path d="M23.75 3.5498H24.7V6.8298C24.7 7.1298 24.75 7.3998 24.84 7.6598C24.93 7.9198 25.07 8.1398 25.24 8.3298C25.42 8.5198 25.63 8.6698 25.88 8.7898C26.13 8.8998 26.41 8.9598 26.73 8.9598C27.02 8.9598 27.29 8.9098 27.53 8.7998C27.78 8.6898 27.99 8.5398 28.18 8.3398C28.36 8.1398 28.51 7.9098 28.62 7.6298C28.73 7.3498 28.79 7.0498 28.8 6.7198V3.5498H29.75V9.6898H28.8V8.4498C28.73 8.6098 28.62 8.7698 28.48 8.9298C28.34 9.0898 28.17 9.2298 27.97 9.3598C27.77 9.4898 27.55 9.5898 27.31 9.6798C27.07 9.7598 26.81 9.8098 26.54 9.8098C26.14 9.8098 25.77 9.7398 25.43 9.5898C25.09 9.4398 24.8 9.2298 24.55 8.9698C24.3 8.6998 24.11 8.3798 23.97 7.9998C23.83 7.6198 23.76 7.1998 23.76 6.7498V3.5598L23.75 3.5498Z" fill="white"/>
<path d="M33.6003 1.37C33.3203 1.37 33.0804 1.47 32.8904 1.68C32.6904 1.88 32.6003 2.16 32.6003 2.5V3.56H34.2603V4.4H32.6003V9.7H31.6504V4.4H30.6104V3.56H31.6504V2.53C31.6504 2.26 31.7004 2 31.7904 1.75C31.8804 1.5 32.0103 1.28 32.1903 1.1C32.3603 0.91 32.5704 0.76 32.8104 0.66C33.0504 0.55 33.3203 0.5 33.6203 0.5C33.7503 0.5 33.8704 0.5 33.9804 0.51C34.0904 0.51 34.1904 0.53 34.2704 0.55V1.39H33.6104L33.6003 1.37Z" fill="white"/>
<path d="M39.2299 2.52023C39.2299 2.31023 39.1999 2.11023 39.1499 1.91023C39.0999 1.71023 39.0099 1.54023 38.8899 1.39023C38.7699 1.24023 38.6099 1.12023 38.4199 1.03023C38.2299 0.940234 37.9999 0.890234 37.7199 0.890234C37.2999 0.890234 36.9499 1.03023 36.6699 1.32023C36.3899 1.61023 36.2399 2.00023 36.2399 2.51023V3.54023H38.1999V4.38023H36.2399V9.68023H35.2899V4.38023H34.1299V3.54023H35.2899V2.51023C35.2899 2.17023 35.3499 1.84023 35.4599 1.54023C35.5799 1.24023 35.7399 0.970234 35.9499 0.740234C36.1599 0.510234 36.4199 0.330234 36.7199 0.190234C37.0199 0.0502344 37.3499 -0.00976562 37.7199 -0.00976562C38.0899 -0.00976562 38.4499 0.0602344 38.7499 0.190234C39.0499 0.320234 39.3099 0.500234 39.5199 0.730234C39.7299 0.960234 39.8899 1.23023 39.9999 1.53023C40.1099 1.84023 40.1599 2.16023 40.1599 2.51023H39.1999L39.2299 2.52023ZM40.1899 3.55023V9.69023H39.2299V3.55023H40.1899Z" fill="white"/>
<path d="M46.5902 8.8902C46.3002 9.1902 45.9702 9.4102 45.5902 9.5702C45.2102 9.7302 44.8002 9.8102 44.3402 9.8102C43.8802 9.8102 43.4902 9.7302 43.1002 9.5602C42.7102 9.3902 42.3702 9.1602 42.0902 8.8802C41.8102 8.6002 41.5702 8.2502 41.4102 7.8702C41.2402 7.4802 41.1602 7.0702 41.1602 6.6302C41.1602 6.1902 41.2402 5.7802 41.4102 5.3902C41.5802 5.0002 41.8102 4.6602 42.0902 4.3802C42.3702 4.1002 42.7202 3.8602 43.1002 3.7002C43.4802 3.5402 43.9002 3.4502 44.3402 3.4502C44.8202 3.4502 45.2502 3.5402 45.6402 3.7202C46.0302 3.9002 46.3602 4.1402 46.6402 4.4302L45.9802 5.0802C45.7702 4.8602 45.5302 4.7002 45.2502 4.5802C44.9702 4.4602 44.6702 4.4002 44.3402 4.4002C44.0102 4.4002 43.7302 4.4602 43.4602 4.5702C43.1802 4.6902 42.9402 4.8502 42.7402 5.0502C42.5402 5.2502 42.3802 5.4902 42.2602 5.7602C42.1402 6.0302 42.0902 6.3202 42.0902 6.6402C42.0902 6.9602 42.1502 7.25019 42.2602 7.5202C42.3802 7.8002 42.5402 8.0402 42.7402 8.2402C42.9402 8.4402 43.1802 8.6002 43.4602 8.7202C43.7402 8.8402 44.0302 8.8902 44.3402 8.8902C44.6702 8.8902 44.9702 8.8302 45.2302 8.7202C45.5002 8.6002 45.7402 8.4502 45.9402 8.2502L46.5802 8.9102L46.5902 8.8902Z" fill="white"/>
<path d="M47.3398 1.14996C47.3398 0.959961 47.4098 0.789961 47.5398 0.659961C47.6798 0.519961 47.8398 0.459961 48.0298 0.459961C48.2198 0.459961 48.3998 0.529961 48.5298 0.659961C48.6598 0.789961 48.7298 0.959961 48.7298 1.14996C48.7298 1.33996 48.6598 1.51996 48.5298 1.64996C48.3898 1.78996 48.2298 1.84996 48.0298 1.84996C47.8298 1.84996 47.6698 1.77996 47.5398 1.64996C47.4098 1.51996 47.3398 1.34996 47.3398 1.14996ZM48.5198 3.54996V9.68996H47.5598V3.54996H48.5198Z" fill="white"/>
<path d="M55.7401 6.6602C55.7401 6.7202 55.7401 6.7802 55.7401 6.8502C55.7401 6.9202 55.7301 6.9802 55.7101 7.0302H50.6101C50.6101 7.3102 50.6701 7.5702 50.7901 7.8002C50.9101 8.0302 51.0701 8.2302 51.2701 8.4002C51.4701 8.5702 51.7001 8.7002 51.9501 8.8002C52.2101 8.9002 52.4701 8.9402 52.7401 8.9402C53.1001 8.9402 53.4201 8.8802 53.7001 8.7702C53.9801 8.6602 54.2201 8.5002 54.4301 8.3102L55.0901 8.8902C54.7901 9.1902 54.4501 9.4202 54.0501 9.5802C53.6501 9.7402 53.2101 9.8302 52.7201 9.8302C52.3401 9.8302 51.9701 9.7602 51.6001 9.6302C51.2301 9.5002 50.8901 9.2902 50.6001 9.0202C50.3001 8.7502 50.0701 8.4202 49.8901 8.0202C49.7101 7.6202 49.6201 7.1602 49.6201 6.6302C49.6201 6.1902 49.6901 5.7802 49.8401 5.3902C49.9801 5.0002 50.1901 4.6602 50.4601 4.3802C50.7301 4.0902 51.0501 3.8702 51.4301 3.7002C51.8101 3.5302 52.2201 3.4502 52.6801 3.4502C53.1401 3.4502 53.5701 3.5402 53.9501 3.7102C54.3301 3.8802 54.6501 4.1102 54.9201 4.4102C55.1901 4.7002 55.3901 5.0402 55.5401 5.4302C55.6801 5.8202 55.7601 6.2302 55.7601 6.6702L55.7401 6.6602ZM52.6801 4.3002C52.3701 4.3002 52.0801 4.3502 51.8301 4.4602C51.5701 4.5702 51.3601 4.7102 51.1801 4.8902C51.0001 5.0702 50.8601 5.2802 50.7601 5.5102C50.6601 5.7502 50.6101 6.0002 50.6101 6.2602H54.7601C54.7601 6.0102 54.7101 5.7702 54.6101 5.5302C54.5101 5.2902 54.3701 5.0802 54.1901 4.9002C54.0101 4.7202 53.7901 4.5702 53.5401 4.4602C53.2801 4.3502 53.0001 4.2902 52.6901 4.2902L52.6801 4.3002Z" fill="white"/>
<path d="M62.4998 9.69994H61.5498V6.43994C61.5498 6.13994 61.4998 5.86994 61.4098 5.60994C61.3198 5.34994 61.1798 5.11994 61.0098 4.92994C60.8298 4.73994 60.6198 4.58994 60.3698 4.46994C60.1198 4.35994 59.8398 4.29994 59.5198 4.29994C59.2298 4.29994 58.9598 4.35994 58.7198 4.46994C58.4698 4.57994 58.2598 4.73994 58.0698 4.92994C57.8898 5.12994 57.7398 5.35994 57.6298 5.63994C57.5198 5.91994 57.4598 6.21994 57.4498 6.54994V9.70994H56.5098V3.54994H57.4498V4.79994C57.5298 4.64994 57.6398 4.48994 57.7898 4.32994C57.9298 4.16994 58.0998 4.01994 58.2998 3.88994C58.4998 3.75994 58.7098 3.64994 58.9498 3.56994C59.1898 3.48994 59.4498 3.43994 59.7198 3.43994C60.1298 3.43994 60.4998 3.50994 60.8398 3.65994C61.1798 3.80994 61.4698 4.01994 61.7198 4.28994C61.9598 4.55994 62.1598 4.88994 62.2998 5.25994C62.4398 5.62994 62.5098 6.04994 62.5098 6.50994V9.69994H62.4998Z" fill="white"/>
<path d="M68.6995 8.8902C68.4095 9.1902 68.0795 9.4102 67.6995 9.5702C67.3195 9.7302 66.9095 9.8102 66.4495 9.8102C65.9895 9.8102 65.5995 9.7302 65.2095 9.5602C64.8195 9.3902 64.4795 9.1602 64.1995 8.8802C63.9195 8.6002 63.6795 8.2502 63.5195 7.8702C63.3495 7.4802 63.2695 7.0702 63.2695 6.6302C63.2695 6.1902 63.3495 5.7802 63.5195 5.3902C63.6895 5.0002 63.9195 4.6602 64.1995 4.3802C64.4795 4.1002 64.8295 3.8602 65.2095 3.7002C65.5895 3.5402 66.0095 3.4502 66.4495 3.4502C66.9295 3.4502 67.3595 3.5402 67.7495 3.7202C68.1395 3.9002 68.4695 4.1402 68.7495 4.4302L68.0895 5.0802C67.8795 4.8602 67.6395 4.7002 67.3595 4.5802C67.0795 4.4602 66.7795 4.4002 66.4495 4.4002C66.1195 4.4002 65.8395 4.4602 65.5695 4.5702C65.2895 4.6902 65.0495 4.8502 64.8495 5.0502C64.6495 5.2502 64.4895 5.4902 64.3695 5.7602C64.2495 6.0302 64.1995 6.3202 64.1995 6.6402C64.1995 6.9602 64.2595 7.25019 64.3695 7.5202C64.4895 7.8002 64.6495 8.0402 64.8495 8.2402C65.0495 8.4402 65.2895 8.6002 65.5695 8.7202C65.8495 8.8402 66.1395 8.8902 66.4495 8.8902C66.7795 8.8902 67.0795 8.8302 67.3395 8.7202C67.6095 8.6002 67.8495 8.4502 68.0495 8.2502L68.6895 8.9102L68.6995 8.8902Z" fill="white"/>
<path d="M71.9998 8.8898L74.1398 3.5498H75.1998L72.4498 10.2598V12.7698H71.5098V10.2898L68.7598 3.5598H69.8198L71.9398 8.8998H71.9998V8.8898Z" fill="white"/>
<path d="M17.4297 19.6999V10.8799H20.5497C20.8997 10.8799 21.2297 10.9399 21.5297 11.0699C21.8297 11.1999 22.0897 11.3699 22.2997 11.5899C22.5197 11.8099 22.6897 12.0599 22.8097 12.3499C22.9297 12.6399 22.9997 12.9499 22.9997 13.2799C22.9997 13.4599 22.9797 13.6499 22.9297 13.8299C22.8797 14.0099 22.8097 14.1899 22.7197 14.3499C22.6297 14.5099 22.5197 14.6499 22.3897 14.7799C22.2597 14.9099 22.1197 15.0099 21.9597 15.0899C22.1997 15.1799 22.4097 15.2999 22.5997 15.4399C22.7897 15.5899 22.9497 15.7599 23.0797 15.9499C23.2097 16.1399 23.3097 16.3499 23.3897 16.5699C23.4597 16.7899 23.4997 17.0099 23.4997 17.2399C23.4997 17.5799 23.4397 17.8899 23.3097 18.1899C23.1797 18.4899 23.0097 18.7499 22.7897 18.9799C22.5697 19.1999 22.3097 19.3799 22.0097 19.5099C21.7097 19.6399 21.3797 19.6999 21.0297 19.6999H17.4297ZM18.3697 14.7699H20.4797C20.9397 14.7699 21.3197 14.6399 21.6097 14.3699C21.8997 14.0999 22.0497 13.7399 22.0497 13.2799C22.0497 13.0699 22.0097 12.8799 21.9397 12.6899C21.8597 12.5099 21.7597 12.3499 21.6197 12.2099C21.4797 12.0699 21.3097 11.9699 21.1197 11.8899C20.9297 11.8099 20.7197 11.7699 20.4797 11.7699H18.3697V14.7699ZM18.3797 18.8099H20.9697C21.1897 18.8099 21.3997 18.7699 21.5897 18.6899C21.7797 18.6099 21.9397 18.4999 22.0797 18.3599C22.2197 18.2199 22.3197 18.0599 22.3997 17.8699C22.4797 17.6799 22.5197 17.4799 22.5197 17.2599C22.5197 17.0399 22.4797 16.8199 22.3897 16.6199C22.3097 16.4199 22.1897 16.2499 22.0397 16.0999C21.8897 15.9599 21.7097 15.8399 21.5097 15.7599C21.3097 15.6799 21.0897 15.6299 20.8497 15.6299H18.3797V18.7999V18.8099Z" fill="white"/>
<path d="M24.2402 13.5498H25.1902V16.8298C25.1902 17.1298 25.2402 17.3998 25.3302 17.6598C25.4202 17.9198 25.5602 18.1398 25.7302 18.3298C25.9102 18.5198 26.1202 18.6698 26.3702 18.7898C26.6202 18.9098 26.9002 18.9598 27.2202 18.9598C27.5102 18.9598 27.7802 18.9098 28.0202 18.7998C28.2702 18.6898 28.4802 18.5398 28.6702 18.3398C28.8502 18.1398 29.0002 17.9098 29.1102 17.6298C29.2202 17.3498 29.2802 17.0498 29.2902 16.7198V13.5498H30.2402V19.6898H29.2902V18.4498C29.2202 18.6098 29.1102 18.7698 28.9702 18.9298C28.8302 19.0898 28.6602 19.2298 28.4602 19.3598C28.2602 19.4898 28.0402 19.5898 27.8002 19.6798C27.5602 19.7598 27.3002 19.8098 27.0302 19.8098C26.6302 19.8098 26.2602 19.7398 25.9202 19.5898C25.5802 19.4398 25.2902 19.2298 25.0402 18.9698C24.7902 18.6998 24.6002 18.3798 24.4602 17.9998C24.3202 17.6198 24.2502 17.1998 24.2502 16.7498V13.5598L24.2402 13.5498Z" fill="white"/>
<path d="M32.2305 15.1401C32.2305 15.5401 32.5405 15.8301 33.1505 16.0201L34.6005 16.4301C35.2205 16.6101 35.6705 16.8401 35.9405 17.1401C36.2105 17.4401 36.3505 17.7901 36.3505 18.2101C36.3505 18.4401 36.3005 18.6601 36.2005 18.8601C36.1005 19.0601 35.9505 19.2401 35.7605 19.3901C35.5605 19.5401 35.3205 19.6601 35.0205 19.7501C34.7205 19.8401 34.3705 19.8801 33.9605 19.8801C33.6605 19.8801 33.3805 19.8501 33.1005 19.7901C32.8205 19.7301 32.5705 19.6501 32.3305 19.5401C32.0905 19.4401 31.8805 19.3101 31.6905 19.1701C31.5005 19.0301 31.3505 18.8801 31.2305 18.7201L31.9505 18.1901C32.0505 18.3201 32.1805 18.4301 32.3405 18.5401C32.5005 18.6401 32.6605 18.7301 32.8405 18.8001C33.0205 18.8701 33.2005 18.9301 33.3905 18.9601C33.5805 19.0001 33.7605 19.0101 33.9505 19.0101C34.4305 19.0101 34.7905 18.9301 35.0205 18.7701C35.2505 18.6101 35.3705 18.4101 35.3705 18.1801C35.3705 17.9901 35.3005 17.8201 35.1505 17.6601C35.0105 17.5101 34.7505 17.3801 34.3905 17.2601L33.0105 16.8601C32.4105 16.7001 31.9705 16.4701 31.6805 16.1701C31.3905 15.8701 31.2505 15.5201 31.2505 15.1101C31.2505 14.8801 31.3005 14.6601 31.4005 14.4401C31.5005 14.2301 31.6505 14.0401 31.8605 13.8801C32.0705 13.7201 32.3205 13.5901 32.6205 13.4901C32.9205 13.3901 33.2805 13.3501 33.6805 13.3501C34.0805 13.3501 34.4105 13.4101 34.7205 13.5201C35.0305 13.6401 35.3005 13.7901 35.5205 13.9801C35.7405 14.1701 35.9105 14.3901 36.0205 14.6301C36.1405 14.8701 36.1905 15.1101 36.1905 15.3601H35.2505C35.2305 15.0201 35.0705 14.7401 34.7805 14.5101C34.4905 14.2801 34.1205 14.1601 33.6705 14.1601C33.4105 14.1601 33.1905 14.1901 33.0005 14.2401C32.8105 14.3001 32.6605 14.3701 32.5405 14.4601C32.4205 14.5501 32.3305 14.6501 32.2805 14.7601C32.2205 14.8701 32.2005 14.9901 32.2005 15.1101L32.2305 15.1401Z" fill="white"/>
<path d="M37.2695 11.15C37.2695 10.96 37.3395 10.79 37.4695 10.66C37.6095 10.52 37.7695 10.46 37.9595 10.46C38.1495 10.46 38.3295 10.53 38.4595 10.66C38.5895 10.79 38.6595 10.96 38.6595 11.15C38.6595 11.34 38.5895 11.52 38.4595 11.65C38.3195 11.79 38.1595 11.85 37.9595 11.85C37.7595 11.85 37.5995 11.78 37.4695 11.65C37.3295 11.51 37.2695 11.35 37.2695 11.15ZM38.4495 13.55V19.69H37.4895V13.55H38.4495Z" fill="white"/>
<path d="M45.9402 19.7H44.9902V16.44C44.9902 16.14 44.9402 15.87 44.8502 15.61C44.7602 15.35 44.6202 15.12 44.4502 14.93C44.2702 14.74 44.0602 14.59 43.8102 14.47C43.5602 14.36 43.2802 14.3 42.9602 14.3C42.6702 14.3 42.4002 14.36 42.1602 14.47C41.9102 14.58 41.7002 14.74 41.5102 14.93C41.3302 15.13 41.1802 15.36 41.0702 15.64C40.9602 15.92 40.9002 16.22 40.8902 16.55V19.71H39.9502V13.57H40.8902V14.82C40.9702 14.67 41.0802 14.51 41.2302 14.35C41.3802 14.19 41.5402 14.04 41.7402 13.91C41.9402 13.78 42.1502 13.67 42.3902 13.59C42.6302 13.51 42.8902 13.46 43.1602 13.46C43.5702 13.46 43.9402 13.53 44.2802 13.68C44.6202 13.83 44.9102 14.04 45.1602 14.31C45.4002 14.58 45.6002 14.91 45.7402 15.28C45.8802 15.66 45.9502 16.07 45.9502 16.53V19.72L45.9402 19.7Z" fill="white"/>
<path d="M52.9696 16.6602C52.9696 16.7202 52.9696 16.7802 52.9696 16.8502C52.9696 16.9202 52.9596 16.9802 52.9396 17.0302H47.8396C47.8396 17.3102 47.8996 17.5702 48.0196 17.8002C48.1396 18.0302 48.2996 18.2302 48.4996 18.4002C48.6996 18.5702 48.9296 18.7002 49.1796 18.8002C49.4396 18.9002 49.6996 18.9402 49.9696 18.9402C50.3296 18.9402 50.6496 18.8802 50.9296 18.7702C51.2096 18.6602 51.4496 18.5002 51.6596 18.3102L52.3196 18.8902C52.0196 19.1902 51.6796 19.4202 51.2796 19.5802C50.8796 19.7402 50.4396 19.8302 49.9496 19.8302C49.5696 19.8302 49.1996 19.7602 48.8296 19.6302C48.4596 19.5002 48.1196 19.2902 47.8296 19.0202C47.5296 18.7502 47.2996 18.4202 47.1196 18.0202C46.9396 17.6202 46.8496 17.1602 46.8496 16.6302C46.8496 16.1902 46.9196 15.7802 47.0696 15.3902C47.2096 15.0002 47.4196 14.6602 47.6896 14.3802C47.9596 14.0902 48.2796 13.8702 48.6596 13.7002C49.0396 13.5302 49.4496 13.4502 49.9096 13.4502C50.3696 13.4502 50.7996 13.5402 51.1796 13.7102C51.5596 13.8802 51.8796 14.1102 52.1496 14.4102C52.4196 14.7002 52.6196 15.0402 52.7696 15.4302C52.9096 15.8202 52.9896 16.2302 52.9896 16.6702L52.9696 16.6602ZM49.9096 14.3002C49.5996 14.3002 49.3096 14.3502 49.0596 14.4602C48.7996 14.5702 48.5896 14.7102 48.4096 14.8902C48.2296 15.0702 48.0896 15.2802 47.9896 15.5102C47.8896 15.7502 47.8396 16.0002 47.8396 16.2602H51.9896C51.9896 16.0102 51.9396 15.7702 51.8396 15.5302C51.7396 15.2902 51.5996 15.0802 51.4196 14.9002C51.2396 14.7202 51.0196 14.5702 50.7696 14.4602C50.5096 14.3502 50.2296 14.2902 49.9196 14.2902L49.9096 14.3002Z" fill="white"/>
<path d="M54.3398 15.1401C54.3398 15.5401 54.6498 15.8301 55.2598 16.0201L56.7098 16.4301C57.3298 16.6101 57.7798 16.8401 58.0498 17.1401C58.3198 17.4401 58.4598 17.7901 58.4598 18.2101C58.4598 18.4401 58.4098 18.6601 58.3098 18.8601C58.2098 19.0601 58.0598 19.2401 57.8698 19.3901C57.6698 19.5401 57.4298 19.6601 57.1298 19.7501C56.8298 19.8401 56.4798 19.8801 56.0698 19.8801C55.7698 19.8801 55.4898 19.8501 55.2098 19.7901C54.9298 19.7301 54.6798 19.6501 54.4398 19.5401C54.1998 19.4401 53.9898 19.3101 53.7998 19.1701C53.6098 19.0301 53.4598 18.8801 53.3398 18.7201L54.0598 18.1901C54.1598 18.3201 54.2898 18.4301 54.4498 18.5401C54.6098 18.6401 54.7698 18.7301 54.9498 18.8001C55.1298 18.8701 55.3098 18.9301 55.4998 18.9601C55.6898 19.0001 55.8698 19.0101 56.0598 19.0101C56.5398 19.0101 56.8998 18.9301 57.1298 18.7701C57.3598 18.6101 57.4798 18.4101 57.4798 18.1801C57.4798 17.9901 57.4098 17.8201 57.2598 17.6601C57.1198 17.5101 56.8598 17.3801 56.4998 17.2601L55.1198 16.8601C54.5198 16.7001 54.0798 16.4701 53.7898 16.1701C53.4998 15.8701 53.3598 15.5201 53.3598 15.1101C53.3598 14.8801 53.4098 14.6601 53.5098 14.4401C53.6098 14.2301 53.7598 14.0401 53.9698 13.8801C54.1798 13.7201 54.4298 13.5901 54.7298 13.4901C55.0298 13.3901 55.3898 13.3501 55.7898 13.3501C56.1898 13.3501 56.5198 13.4101 56.8298 13.5201C57.1398 13.6401 57.4098 13.7901 57.6298 13.9801C57.8498 14.1701 58.0198 14.3901 58.1298 14.6301C58.2498 14.8701 58.2998 15.1101 58.2998 15.3601H57.3598C57.3398 15.0201 57.1798 14.7401 56.8898 14.5101C56.5998 14.2801 56.2298 14.1601 55.7798 14.1601C55.5198 14.1601 55.2998 14.1901 55.1098 14.2401C54.9198 14.3001 54.7698 14.3701 54.6498 14.4601C54.5298 14.5501 54.4398 14.6501 54.3898 14.7601C54.3298 14.8701 54.3098 14.9901 54.3098 15.1101L54.3398 15.1401Z" fill="white"/>
<path d="M59.8604 15.1401C59.8604 15.5401 60.1703 15.8301 60.7803 16.0201L62.2304 16.4301C62.8504 16.6101 63.3004 16.8401 63.5704 17.1401C63.8404 17.4401 63.9804 17.7901 63.9804 18.2101C63.9804 18.4401 63.9304 18.6601 63.8304 18.8601C63.7304 19.0601 63.5804 19.2401 63.3904 19.3901C63.1904 19.5401 62.9504 19.6601 62.6504 19.7501C62.3504 19.8401 62.0004 19.8801 61.5904 19.8801C61.2904 19.8801 61.0104 19.8501 60.7304 19.7901C60.4504 19.7301 60.2004 19.6501 59.9604 19.5401C59.7204 19.4401 59.5104 19.3101 59.3204 19.1701C59.1304 19.0301 58.9804 18.8801 58.8604 18.7201L59.5804 18.1901C59.6804 18.3201 59.8104 18.4301 59.9704 18.5401C60.1304 18.6401 60.2904 18.7301 60.4704 18.8001C60.6504 18.8701 60.8304 18.9301 61.0204 18.9601C61.2104 19.0001 61.3904 19.0101 61.5804 19.0101C62.0604 19.0101 62.4204 18.9301 62.6504 18.7701C62.8804 18.6101 63.0004 18.4101 63.0004 18.1801C63.0004 17.9901 62.9303 17.8201 62.7803 17.6601C62.6403 17.5101 62.3804 17.3801 62.0204 17.2601L60.6404 16.8601C60.0404 16.7001 59.6004 16.4701 59.3104 16.1701C59.0204 15.8701 58.8804 15.5201 58.8804 15.1101C58.8804 14.8801 58.9303 14.6601 59.0303 14.4401C59.1303 14.2301 59.2804 14.0401 59.4904 13.8801C59.7004 13.7201 59.9504 13.5901 60.2504 13.4901C60.5504 13.3901 60.9104 13.3501 61.3104 13.3501C61.7104 13.3501 62.0403 13.4101 62.3503 13.5201C62.6603 13.6401 62.9304 13.7901 63.1504 13.9801C63.3704 14.1701 63.5404 14.3901 63.6504 14.6301C63.7704 14.8701 63.8204 15.1101 63.8204 15.3601H62.8804C62.8604 15.0201 62.7004 14.7401 62.4104 14.5101C62.1204 14.2801 61.7504 14.1601 61.3004 14.1601C61.0404 14.1601 60.8204 14.1901 60.6304 14.2401C60.4404 14.3001 60.2903 14.3701 60.1703 14.4601C60.0503 14.5501 59.9604 14.6501 59.9104 14.7601C59.8504 14.8701 59.8304 14.9901 59.8304 15.1101L59.8604 15.1401Z" fill="white"/>
<path d="M23.9697 20.8799H24.9697V29.6399L24.8297 29.7099L18.4297 23.0399V29.6999H17.4297V20.9399L17.5597 20.8799L23.9697 27.5499V20.8799Z" fill="white"/>
<path d="M31.9598 26.6602C31.9598 26.7202 31.9598 26.7802 31.9598 26.8502C31.9598 26.9202 31.9498 26.9802 31.9298 27.0302H26.8298C26.8298 27.3102 26.8898 27.5702 27.0098 27.8002C27.1298 28.0302 27.2898 28.2302 27.4898 28.4002C27.6898 28.5702 27.9198 28.7002 28.1698 28.8002C28.4298 28.9002 28.6898 28.9402 28.9598 28.9402C29.3198 28.9402 29.6398 28.8802 29.9198 28.7702C30.1998 28.6602 30.4398 28.5002 30.6498 28.3102L31.3098 28.8902C31.0098 29.1902 30.6698 29.4202 30.2698 29.5802C29.8698 29.7402 29.4298 29.8302 28.9398 29.8302C28.5598 29.8302 28.1898 29.7602 27.8198 29.6302C27.4498 29.5002 27.1098 29.2902 26.8198 29.0202C26.5198 28.7502 26.2898 28.4202 26.1098 28.0202C25.9298 27.6202 25.8398 27.1602 25.8398 26.6302C25.8398 26.1902 25.9098 25.7802 26.0598 25.3902C26.1998 25.0002 26.4098 24.6602 26.6798 24.3802C26.9498 24.0902 27.2698 23.8702 27.6498 23.7002C28.0298 23.5302 28.4398 23.4502 28.8998 23.4502C29.3598 23.4502 29.7898 23.5402 30.1698 23.7102C30.5498 23.8802 30.8698 24.1102 31.1398 24.4102C31.4098 24.7002 31.6098 25.0402 31.7598 25.4302C31.8998 25.8202 31.9798 26.2302 31.9798 26.6702L31.9598 26.6602ZM28.8998 24.3002C28.5898 24.3002 28.2998 24.3502 28.0498 24.4602C27.7898 24.5702 27.5798 24.7102 27.3998 24.8902C27.2198 25.0702 27.0798 25.2802 26.9798 25.5102C26.8798 25.7502 26.8298 26.0002 26.8298 26.2602H30.9798C30.9798 26.0102 30.9298 25.7702 30.8298 25.5302C30.7298 25.2902 30.5898 25.0802 30.4098 24.9002C30.2298 24.7202 30.0098 24.5702 29.7598 24.4602C29.4998 24.3502 29.2198 24.2902 28.9098 24.2902L28.8998 24.3002Z" fill="white"/>
<path d="M33.4796 29.7V24.4H32.0596V23.56H33.4796V22.02H34.4396V23.56H35.8596V24.4H34.4396V29.7H33.4796Z" fill="white"/>
<path d="M42.2097 28.8298H42.2697L43.6397 23.5498H44.6397L42.9997 29.6898H41.5797L40.2197 24.9998H40.1397L38.7797 29.6898H37.3597L35.7197 23.5498H36.7197L38.0897 28.8298H38.1497L39.6597 23.5498H40.6997L42.2097 28.8298Z" fill="white"/>
<path d="M44.9297 26.62C44.9297 26.18 45.0097 25.77 45.1797 25.38C45.3397 25 45.5697 24.66 45.8497 24.38C46.1297 24.1 46.4697 23.87 46.8497 23.71C47.2297 23.55 47.6497 23.46 48.0897 23.46C48.5297 23.46 48.9397 23.54 49.3297 23.71C49.7097 23.87 50.0497 24.1 50.3397 24.38C50.6297 24.66 50.8497 25 51.0197 25.38C51.1797 25.76 51.2697 26.18 51.2697 26.62C51.2697 27.06 51.1897 27.47 51.0197 27.86C50.8497 28.25 50.6297 28.58 50.3397 28.87C50.0497 29.16 49.7197 29.38 49.3297 29.55C48.9497 29.71 48.5297 29.8 48.0897 29.8C47.6497 29.8 47.2397 29.72 46.8497 29.55C46.4697 29.39 46.1297 29.16 45.8497 28.87C45.5697 28.58 45.3397 28.25 45.1797 27.86C45.0197 27.47 44.9297 27.06 44.9297 26.62ZM45.8697 26.62C45.8697 26.93 45.9297 27.22 46.0397 27.5C46.1597 27.77 46.3097 28.01 46.5097 28.21C46.7097 28.41 46.9497 28.57 47.2197 28.68C47.4897 28.8 47.7797 28.85 48.0797 28.85C48.3797 28.85 48.6797 28.79 48.9497 28.68C49.2197 28.56 49.4497 28.41 49.6597 28.21C49.8597 28.01 50.0197 27.77 50.1397 27.5C50.2597 27.23 50.3097 26.94 50.3097 26.62C50.3097 26.3 50.2497 26.02 50.1397 25.75C50.0197 25.48 49.8597 25.25 49.6597 25.04C49.4597 24.84 49.2197 24.68 48.9497 24.56C48.6797 24.44 48.3897 24.39 48.0797 24.39C47.7697 24.39 47.4897 24.45 47.2197 24.56C46.9497 24.68 46.7097 24.84 46.5097 25.04C46.3097 25.24 46.1497 25.48 46.0397 25.75C45.9197 26.02 45.8697 26.31 45.8697 26.62Z" fill="white"/>
<path d="M53.0704 29.6998H52.1104V23.5598H52.9403V24.6498C53.1503 24.2898 53.4303 24.0198 53.7803 23.8298C54.1303 23.6498 54.5203 23.5498 54.9403 23.5498H55.2404V24.3898H54.9403C54.6703 24.3898 54.4203 24.4398 54.1903 24.5298C53.9603 24.6198 53.7603 24.7498 53.6003 24.9198C53.4403 25.0898 53.3004 25.2898 53.2104 25.5098C53.1204 25.7398 53.0704 25.9898 53.0704 26.2598V29.6898V29.6998Z" fill="white"/>
<path d="M56.7996 20.4802V26.1702H58.3196L59.9196 23.5502H60.9496L59.0996 26.6202L60.9496 29.6902H59.9196L58.3196 27.0902H56.7996V29.6902H55.8496V20.4702H56.7996V20.4802Z" fill="white"/>
<path d="M3 11.37C2.72 11.37 2.48 11.47 2.29 11.68C2.09 11.88 2 12.16 2 12.5V13.56H3.66V14.4H2V19.7H1.05V14.4H0V13.56H1.04V12.53C1.04 12.26 1.09 12 1.18 11.75C1.27 11.5 1.4 11.28 1.58 11.1C1.75 10.91 1.96 10.76 2.2 10.66C2.44 10.55 2.71 10.5 3.01 10.5C3.14 10.5 3.26 10.5 3.37 10.51C3.48 10.51 3.58 10.53 3.66 10.55V11.39H3V11.37Z" fill="white"/>
<path d="M3.90039 16.62C3.90039 16.18 3.98039 15.77 4.15039 15.38C4.31039 15 4.54039 14.66 4.82039 14.38C5.10039 14.1 5.44039 13.87 5.82039 13.71C6.20039 13.55 6.62039 13.46 7.06039 13.46C7.50039 13.46 7.91039 13.54 8.30039 13.71C8.68039 13.87 9.02039 14.1 9.31039 14.38C9.60039 14.66 9.82039 15 9.99039 15.38C10.1504 15.76 10.2404 16.18 10.2404 16.62C10.2404 17.06 10.1604 17.47 9.99039 17.86C9.82039 18.25 9.60039 18.58 9.31039 18.87C9.02039 19.16 8.69039 19.38 8.30039 19.55C7.92039 19.71 7.50039 19.8 7.06039 19.8C6.62039 19.8 6.21039 19.72 5.82039 19.55C5.44039 19.39 5.10039 19.16 4.82039 18.87C4.54039 18.58 4.31039 18.25 4.15039 17.86C3.99039 17.47 3.90039 17.06 3.90039 16.62ZM4.84039 16.62C4.84039 16.93 4.90039 17.22 5.01039 17.5C5.13039 17.77 5.28039 18.01 5.48039 18.21C5.68039 18.41 5.92039 18.57 6.19039 18.68C6.46039 18.8 6.75039 18.85 7.05039 18.85C7.35039 18.85 7.65039 18.79 7.92039 18.68C8.19039 18.56 8.42039 18.41 8.63039 18.21C8.83039 18.01 8.99039 17.77 9.11039 17.5C9.23039 17.23 9.28039 16.94 9.28039 16.62C9.28039 16.3 9.22039 16.02 9.11039 15.75C8.99039 15.48 8.83039 15.25 8.63039 15.04C8.43039 14.84 8.19039 14.68 7.92039 14.56C7.65039 14.44 7.36039 14.39 7.05039 14.39C6.74039 14.39 6.46039 14.45 6.19039 14.56C5.92039 14.68 5.68039 14.84 5.48039 15.04C5.28039 15.24 5.12039 15.48 5.01039 15.75C4.89039 16.02 4.84039 16.31 4.84039 16.62Z" fill="white"/>
<path d="M12.0401 19.6998H11.0801V13.5598H11.9101V14.6498C12.1201 14.2898 12.4001 14.0198 12.7501 13.8298C13.1001 13.6498 13.4901 13.5498 13.9101 13.5498H14.2101V14.3898H13.9101C13.6401 14.3898 13.3901 14.4398 13.1601 14.5298C12.9301 14.6198 12.7301 14.7498 12.5701 14.9198C12.4101 15.0898 12.2701 15.2898 12.1801 15.5098C12.0901 15.7398 12.0401 15.9898 12.0401 16.2598V19.6898V19.6998Z" fill="white"/>
</g>
<defs>
<clipPath id="clip0_452_209">
<rect width="75.19" height="29.82" fill="white"/>
</clipPath>
</defs>
</svg>
